<svg id="Capa_1" enable-background="new 0 0 497 497" height="512" viewBox="0 0 497 497" width="512" xmlns="http://www.w3.org/2000/svg"><g><path d="m444.136 15h-30v482h30c16.5 0 30-13.5 30-30v-422c0-16.5-13.5-30-30-30z" fill="#4e4cd3"/><path d="m444.136 45c0-16.5-13.5-30-30-30h-302c-16.5 0-30 13.5-30 30v422c0 16.5 13.5 30 30 30h302c16.5 0 30-13.5 30-30v-75l-166-121 166-196z" fill="#666ddc"/><path d="m324.136 262-212 130h-81.749c-4.685 0-8.297 4.263-7.38 8.857 4.114 20.611 22.308 36.143 44.129 36.143h302z" fill="#c4f3ff"/><path d="m324.136 262v130c0 24.853 20.147 45 45 45h30v-175z" fill="#acd2f6"/><path d="m414.136 45-30 389.429c4.693 1.659 9.739 2.571 15 2.571 24.853 0 45-20.147 45-45v-347z" fill="#c4f3ff"/><path d="m307.807 45c0 16.569-13.431 30-30 30s-30-13.431-30-30h-135.671v347h242c0 19.592 12.524 36.25 30 42.429 17.476-6.179 30-22.837 30-42.429v-347z" fill="#fff"/><path d="m354.136 75h-15l15 30h30c0-16.569-13.432-30-30-30z" fill="#7d8fe5"/><path d="m339.136 75h-.195l-19.441-46.936c-6.692-16.457-22.833-28.064-41.693-28.064-18.855 0-34.993 11.602-41.688 28.052l-19.446 46.948h-14.537c-16.569 0-30 13.431-30 30h182c0-16.569-6.716-30-15-30zm-61.329-15c-8.284 0-15-6.716-15-15s6.716-15 15-15 15 6.716 15 15-6.716 15-15 15z" fill="#95b0ed"/><path d="m354.136 308.5h30v30h-30z" fill="#acd2f6"/><path d="m354.136 233.5h30v30h-30z" fill="#acd2f6"/><path d="m354.136 158.5h30v30h-30z" fill="#acd2f6"/><g fill="#4e4cd3"><path d="m324.136 331h-152c-4.142 0-7.5-3.358-7.5-7.5s3.358-7.5 7.5-7.5h152c4.143 0 7.5 3.358 7.5 7.5s-3.358 7.5-7.5 7.5z"/><path d="m324.136 256h-152c-4.142 0-7.5-3.358-7.5-7.5s3.358-7.5 7.5-7.5h152c4.143 0 7.5 3.358 7.5 7.5s-3.358 7.5-7.5 7.5z"/><path d="m324.136 181h-152c-4.142 0-7.5-3.358-7.5-7.5s3.358-7.5 7.5-7.5h152c4.143 0 7.5 3.358 7.5 7.5s-3.358 7.5-7.5 7.5z"/></g></g></svg>