<svg height="512pt" viewBox="-3 0 512 512" width="512pt" xmlns="http://www.w3.org/2000/svg"><path d="m7.5 168.917969h94.066406v54.222656h-94.066406zm0 0" fill="#abffdb"/><path d="m139.695312 168.917969h94.066407v54.222656h-94.066407zm0 0" fill="#ffc850"/><path d="m59.152344 7.5h148.578125v85.644531h-148.578125zm0 0" fill="#ffc850"/><g fill="#92e0c0"><path d="m271.890625 168.917969h94.0625v54.222656h-94.0625zm0 0"/><path d="m7.5 319.585938h94.066406v54.222656h-94.066406zm0 0"/><path d="m139.695312 319.585938h94.066407v54.222656h-94.066407zm0 0"/><path d="m271.890625 319.585938h94.0625v54.222656h-94.0625zm0 0"/></g><path d="m404.085938 168.917969h94.0625v54.222656h-94.0625zm0 0" fill="#ff8031"/><path d="m271.890625 450.277344h94.0625v54.222656h-94.0625zm0 0" fill="#48c397"/><path d="m404.085938 450.277344h94.0625v54.222656h-94.0625zm0 0" fill="#48c397"/><path d="m444.46875 215.640625c-4.144531 0-7.5 3.355469-7.5 7.5 0 4.140625 3.355469 7.5 7.5 7.5h53.679688c4.144531 0 7.5-3.359375 7.5-7.5v-54.222656c0-4.144531-3.355469-7.5-7.5-7.5h-41.667969v-27.734375c0-4.140625-3.359375-7.5-7.5-7.5h-308.039063v-25.539063h66.789063c4.140625 0 7.5-3.359375 7.5-7.5v-21.503906c0-4.140625-3.359375-7.5-7.5-7.5s-7.5 3.359375-7.5 7.5v14.003906h-113.050781l113.050781-65.164062v20.542969c0 4.140624 3.359375 7.5 7.5 7.5s7.5-3.359376 7.5-7.5v-33.523438c0-4.074219-3.421875-7.5-7.5-7.5h-148.578125c-4.144532 0-7.5 3.359375-7.5 7.5v85.644531c0 4.085938 3.433594 7.5 7.527344 7.5h66.761718v25.539063h-73.542968c-4.144532 0-7.5 3.359375-7.5 7.5v27.734375h-37.398438c-4.140625 0-7.5 3.355469-7.5 7.5v54.222656c0 4.140625 3.359375 7.5 7.5 7.5h37.398438v81.445313h-37.398438c-4.140625 0-7.5 3.355468-7.5 7.5v54.21875c0 4.144531 3.359375 7.5 7.5 7.5h94.066406c4.140625 0 7.5-3.355469 7.5-7.5v-54.21875c0-4.144532-3.359375-7.5-7.5-7.5h-41.667968v-20.234376h117.195312v20.234376h-37.398438c-4.140624 0-7.5 3.355468-7.5 7.5v54.21875c0 4.144531 3.359376 7.5 7.5 7.5h16.820313c4.144531 0 7.5-3.355469 7.5-7.5 0-4.140626-3.355469-7.5-7.5-7.5h-9.320313v-39.21875h79.066407v39.21875h-39.128907c-4.140624 0-7.5 3.359374-7.5 7.5 0 4.144531 3.359376 7.5 7.5 7.5h46.628907c4.140625 0 7.5-3.355469 7.5-7.5v-54.21875c0-4.144532-3.359375-7.5-7.5-7.5h-41.667969v-20.234376h117.191406v20.234376h-37.394531c-4.144531 0-7.5 3.355468-7.5 7.5v54.21875c0 4.144531 3.355469 7.5 7.5 7.5h37.394531v61.472656h-37.394531c-4.144531 0-7.5 3.359375-7.5 7.5v54.222656c0 4.140625 3.355469 7.5 7.5 7.5h94.0625c4.144531 0 7.5-3.359375 7.5-7.5v-54.222656c0-4.140625-3.355469-7.5-7.5-7.5h-41.667969v-20.230469h117.195313v20.230469h-37.394531c-4.144532 0-7.5 3.359375-7.5 7.5v54.222656c0 4.140625 3.355468 7.5 7.5 7.5h94.0625c4.144531 0 7.5-3.359375 7.5-7.5v-54.222656c0-4.140625-3.355469-7.5-7.5-7.5h-41.667969v-27.730469c0-4.144531-3.359375-7.5-7.5-7.5h-124.695313v-26.242187h41.667969c4.144531 0 7.5-3.355469 7.5-7.5v-54.21875c0-4.144532-3.355469-7.5-7.5-7.5h-41.667969v-27.734376c0-4.140624-3.355468-7.5-7.5-7.5h-256.886718v-46.210937h41.667968c4.140625 0 7.5-3.359375 7.5-7.5v-54.222656c0-4.144531-3.359375-7.5-7.5-7.5h-41.667968v-20.234375h117.195312v20.234375h-37.398438c-4.140624 0-7.5 3.355469-7.5 7.5v54.222656c0 4.140625 3.359376 7.5 7.5 7.5h94.066407c4.140625 0 7.5-3.359375 7.5-7.5v-54.222656c0-4.144531-3.359375-7.5-7.5-7.5h-41.667969v-20.234375h117.191406v20.234375h-37.394531c-4.144531 0-7.5 3.355469-7.5 7.5v54.222656c0 4.140625 3.355469 7.5 7.5 7.5h94.0625c4.144531 0 7.5-3.359375 7.5-7.5v-54.222656c0-4.144531-3.355469-7.5-7.5-7.5h-41.667969v-20.234375h117.195313v20.234375h-37.394531c-4.144532 0-7.5 3.355469-7.5 7.5v54.222656c0 4.140625 3.355468 7.5 7.5 7.5h9.765624c4.140626 0 7.5-3.359375 7.5-7.5 0-4.144531-3.359374-7.5-7.5-7.5h-2.265624v-39.222656h79.0625v39.222656zm-377.816406-200.640625h113.046875l-113.046875 65.164062zm423.996094 482h-79.0625v-11.824219h79.0625zm0-39.222656v12.398437h-79.0625v-12.398437zm-132.195313 39.222656h-79.0625v-11.824219h79.0625zm0-39.222656v12.398437h-79.0625v-12.398437zm0-130.691406v39.21875h-79.0625v-39.21875zm-264.386719 0v39.21875h-79.066406v-39.21875zm0-150.667969v39.222656h-79.066406v-39.222656zm132.195313 0v39.222656h-79.066407v-39.222656zm132.191406 0v39.222656h-79.0625v-39.222656zm0 0" fill="#474d54"/></svg>