<?xml version="1.0" encoding="UTF-8"?>
<!-- Generator: visioncortex VTracer 0.6.5 -->
<svg version="1.1" xmlns="http://www.w3.org/2000/svg" width="1024" height="1024">
<path d="M0 0 C11.53 8.89 19.59 20.19 24.78 33.76 C24.93 34.13 24.93 34.13 25.69 35.99 C31.16 51.96 28.7 70.65 21.66 85.6 C21.53 85.9 21.53 85.9 20.82 87.4 C20.14 88.86 19.46 90.31 18.78 91.76 C19.33 91.76 19.88 91.76 20.45 91.75 C53.08 91.69 85.72 91.64 118.35 91.6 C122.27 91.6 126.19 91.6 130.12 91.59 C130.9 91.59 131.68 91.59 132.48 91.59 C145.11 91.58 157.74 91.55 170.37 91.53 C183.33 91.5 196.29 91.48 209.26 91.48 C217.25 91.47 225.25 91.46 233.25 91.43 C238.73 91.42 244.22 91.41 249.71 91.42 C252.87 91.42 256.03 91.42 259.2 91.4 C262.64 91.38 266.07 91.39 269.51 91.4 C270.01 91.39 270.01 91.39 272.5 91.37 C286.19 91.46 298.88 96.32 308.93 105.73 C319.24 117.06 321.27 129.43 321.07 144.4 C321.07 145.66 321.06 146.92 321.06 148.18 C321.05 151.46 321.02 154.73 320.99 158 C320.96 161.36 320.94 164.72 320.93 168.08 C320.9 174.64 320.84 181.2 320.78 187.76 C323.75 188.09 326.72 188.42 329.78 188.76 C329.82 187.85 329.86 186.94 329.91 186.01 C331.21 177.09 336.6 168.12 343.78 162.76 C357.36 153.56 375.02 154.27 390.71 154.37 C393.88 154.38 397.05 154.37 400.21 154.35 C445.54 154.3 445.54 154.3 460.78 168.76 C467.57 176.06 470 183.25 469.85 193.06 C469.85 193.39 469.85 193.39 469.84 195.02 C469.82 196.6 469.8 198.18 469.78 199.76 C470.26 199.75 470.26 199.75 472.7 199.71 C476.33 199.66 479.96 199.62 483.59 199.59 C485.15 199.58 486.71 199.56 488.27 199.53 C505.74 199.25 519.65 201.55 533.03 213.85 C542.06 223.69 542.08 235.87 542.07 248.47 C542.08 249.94 542.08 251.41 542.09 252.88 C542.11 256.85 542.11 260.83 542.12 264.8 C542.12 267.29 542.12 269.78 542.13 272.26 C542.15 280.96 542.15 289.65 542.15 298.35 C542.15 306.43 542.17 314.51 542.2 322.59 C542.23 329.55 542.24 336.51 542.24 343.46 C542.24 347.61 542.24 351.76 542.27 355.91 C542.28 359.81 542.28 363.71 542.27 367.61 C542.27 369.04 542.27 370.46 542.28 371.88 C542.38 384.27 540.15 394.22 531.78 403.76 C531.12 404.42 530.46 405.08 529.78 405.76 C530.33 405.84 530.33 405.84 533.11 406.27 C553.66 409.59 553.66 409.59 560.78 414.76 C560.78 417.01 560.78 417.01 559.78 419.76 C534.55 441.1 466.53 428.42 435.77 426.83 C435.1 426.79 434.43 426.76 433.74 426.72 C430.55 426.55 427.37 426.39 424.18 426.22 C418.71 425.93 413.26 425.67 407.78 425.76 C409.57 426.18 411.36 426.59 413.16 427.01 C413.73 427.14 414.29 427.27 414.88 427.41 C418.38 428.23 421.89 428.99 425.41 429.71 C426.19 429.87 426.98 430.04 427.79 430.2 C429.33 430.52 430.88 430.84 432.42 431.14 C438.37 432.39 443.43 434.41 447.78 438.76 C447.72 441.13 447.72 441.13 446.78 443.76 C433.07 456.76 404.36 457.23 386.53 459.26 C385.64 459.36 384.74 459.46 383.82 459.57 C298.45 469.38 212.02 471.55 7.55 469.96 C2.16 469.77 -3.24 469.6 -8.63 469.43 C-64.24 467.65 -121.06 465.76 -176.09 457.26 C-176.72 457.16 -177.35 457.07 -177.99 456.97 C-208.48 452.22 -208.48 452.22 -218.22 443.76 C-218.34 441.07 -218.34 441.07 -217.22 437.76 C-209.39 431.18 -193.24 427.42 -183.22 427.76 C-183.5 427.23 -183.77 426.7 -184.06 426.15 C-184.42 425.44 -184.78 424.74 -185.16 424.01 C-185.52 423.31 -185.88 422.62 -186.25 421.9 C-189.24 415.3 -189.33 407.14 -187.57 400.19 C-185.22 394.42 -181.53 390.16 -177.22 385.76 C-176.96 385.49 -176.96 385.49 -175.66 384.16 C-169.7 378.06 -163.72 372.04 -157.21 366.53 C-154.6 364.21 -152.17 361.74 -149.72 359.26 C-146.09 355.58 -142.4 352.08 -138.47 348.72 C-135.36 346.01 -132.32 343.23 -129.28 340.45 C-128.99 340.18 -128.99 340.18 -127.52 338.84 C-126.98 338.35 -126.44 337.85 -125.88 337.33 C-125.39 336.88 -124.9 336.44 -124.4 335.98 C-122.29 333.8 -122.09 332.11 -122.09 329.2 C-122.09 328.83 -122.09 328.83 -122.08 326.95 C-122.08 326.13 -122.09 325.31 -122.09 324.47 C-122.09 323.6 -122.08 322.73 -122.08 321.84 C-122.08 318.91 -122.08 315.99 -122.08 313.06 C-122.07 310.97 -122.07 308.88 -122.07 306.79 C-122.06 302.28 -122.05 297.76 -122.05 293.25 C-122.04 286.11 -122.03 278.97 -122.01 271.83 C-122 269.39 -122 266.94 -121.99 264.5 C-121.99 263.89 -121.99 263.28 -121.98 262.65 C-121.97 255.69 -121.95 248.74 -121.94 241.78 C-121.94 241.46 -121.94 241.46 -121.93 239.85 C-121.91 229.57 -121.9 219.28 -121.89 208.99 C-121.88 198.42 -121.86 187.85 -121.82 177.28 C-121.8 171.35 -121.79 165.42 -121.8 159.49 C-121.8 153.91 -121.79 148.32 -121.76 142.74 C-121.75 140.69 -121.75 138.65 -121.76 136.6 C-121.81 121.21 -120.69 110.76 -110.22 98.76 C-109.63 98.06 -109.04 97.36 -108.43 96.64 C-107.04 95 -105.64 93.37 -104.22 91.76 C-104.5 91.07 -104.78 90.38 -105.06 89.66 C-113.05 69.59 -116.56 50.03 -107.98 29.47 C-99.68 10.7 -84.6 -2.47 -65.56 -9.89 C-43.48 -17.88 -18.85 -13.67 0 0 Z M377.78 193.76 C377.65 195.35 377.65 195.35 377.66 197.26 C377.65 197.89 377.65 198.52 377.65 199.16 C377.78 200.76 377.78 200.76 378.78 201.76 C380.19 201.85 381.61 201.88 383.03 201.87 C383.93 201.87 384.83 201.87 385.76 201.87 C386.25 201.87 386.25 201.87 388.72 201.86 C389.22 201.85 389.22 201.85 391.75 201.85 C394.94 201.85 398.14 201.83 401.34 201.82 C403.51 201.82 405.67 201.81 407.83 201.81 C413.15 201.8 418.47 201.78 423.78 201.76 C424.86 197.88 424.73 196.23 422.78 192.76 C416.53 192.73 410.29 192.71 404.04 192.7 C401.91 192.7 399.78 192.69 397.66 192.68 C394.6 192.67 391.55 192.66 388.5 192.66 C387.55 192.65 386.59 192.65 385.6 192.64 C385.16 192.64 385.16 192.64 382.93 192.64 C382.15 192.64 381.37 192.64 380.57 192.64 C378.78 192.76 378.78 192.76 377.78 193.76 Z M249.71 205.66 C240.38 215.78 238.33 225.76 238.32 239.23 C238.3 240.56 238.29 241.9 238.28 243.24 C238.24 246.85 238.22 250.46 238.21 254.08 C238.19 257.88 238.16 261.68 238.13 265.47 C238.08 271.86 238.05 278.24 238.02 284.63 C237.98 291.98 237.93 299.32 237.87 306.67 C237.81 313.77 237.77 320.88 237.73 327.98 C237.71 330.98 237.69 333.99 237.66 337 C237.63 340.55 237.62 344.1 237.61 347.66 C237.6 348.95 237.59 350.24 237.58 351.53 C237.45 365.15 237.55 379.64 247.26 390.22 C252.62 395.63 256.85 398.41 264.59 398.64 C265.48 398.64 266.37 398.64 267.28 398.63 C268.2 398.65 269.12 398.67 270.06 398.7 C272.3 398.74 274.54 398.76 276.78 398.76 C273.99 396.57 271.15 394.83 268.03 393.13 C258.16 387.17 253.42 379.47 250.24 368.64 C248.96 363.4 249.1 358.03 249.15 352.68 C249.14 351.33 249.14 349.99 249.13 348.64 C249.11 345.04 249.12 341.44 249.14 337.83 C249.16 334.04 249.15 330.24 249.15 326.45 C249.14 320.08 249.16 313.71 249.18 307.35 C249.22 300.01 249.22 292.68 249.2 285.34 C249.18 278.25 249.19 271.15 249.21 264.06 C249.21 261.05 249.21 258.05 249.21 255.05 C249.2 251.51 249.21 247.97 249.24 244.43 C249.24 243.14 249.24 241.85 249.24 240.56 C249.18 230.07 250.94 220.18 257.66 211.75 C262.42 207.29 268.19 204.07 273.78 200.76 C272.79 198.12 271.8 195.48 270.78 192.76 C264.13 192.76 254.13 201.45 249.71 205.66 Z M-118.22 351.76 C-120.11 353.42 -122.04 355 -124 356.57 C-124.4 356.96 -124.81 357.35 -125.22 357.76 C-125.22 358.42 -125.22 359.08 -125.22 359.76 C-125.8 360.01 -126.38 360.27 -126.98 360.53 C-129.46 361.89 -131.02 363.4 -132.97 365.45 C-135.63 368.18 -138.32 370.78 -141.22 373.26 C-144.73 376.27 -147.97 379.49 -151.21 382.79 C-153.75 385.28 -156.42 387.56 -159.16 389.82 C-162.08 392.57 -164.61 395.71 -167.22 398.76 C-154.68 398.43 -142.14 398.1 -129.22 397.76 C-130.04 397.1 -130.04 397.1 -134.22 393.76 C-136.59 391.82 -136.59 391.82 -138.22 389.76 C-138.05 384.92 -135.44 382.47 -132.12 379.3 C-131.86 379.05 -131.86 379.05 -130.56 377.77 C-128.91 376.15 -127.25 374.55 -125.59 372.95 C-123.43 370.84 -121.27 368.73 -119.12 366.61 C-118.6 366.1 -118.08 365.59 -117.54 365.07 C-112.04 359.66 -107.01 353.92 -102.28 347.82 C-101.69 347.07 -101.11 346.32 -100.5 345.54 C-99.22 343.76 -99.22 343.76 -99.22 342.76 C-108.79 341.14 -112.14 344.88 -118.22 351.76 Z " fill="#DBE2E6" transform="translate(373.21875,301.2421875)"/>
<path d="M0 0 C0.33 0 0.66 0 1 0 C1.04 0.25 1.04 0.25 1.23 1.5 C2.36 7.38 4.82 10.79 9 15 C8.54 15.45 8.08 15.9 7.61 16.36 C7 17.01 6.38 17.65 5.75 18.31 C5.15 18.93 4.54 19.54 3.92 20.18 C-3.16 30.58 -2.57 41.55 -2.5 53.64 C-2.51 55.61 -2.51 57.59 -2.52 59.56 C-2.53 64.9 -2.52 70.24 -2.5 75.57 C-2.49 81.16 -2.5 86.75 -2.5 92.35 C-2.5 101.73 -2.49 111.11 -2.47 120.49 C-2.44 130.13 -2.44 139.78 -2.45 149.43 C-2.46 161.07 -2.46 172.72 -2.44 184.36 C-2.43 188.8 -2.43 193.25 -2.44 197.69 C-2.44 202.91 -2.43 208.14 -2.41 213.36 C-2.41 215.28 -2.41 217.2 -2.41 219.12 C-2.42 221.73 -2.4 224.35 -2.39 226.96 C-2.39 227.73 -2.4 228.49 -2.41 229.27 C-2.4 229.98 -2.39 230.68 -2.38 231.4 C-2.38 232 -2.38 232.61 -2.38 233.23 C-1.82 235.83 -0.89 237.13 1 239 C3.56 239.5 3.56 239.5 6.69 239.51 C7.27 239.51 7.85 239.52 8.45 239.53 C10.4 239.54 12.35 239.53 14.31 239.52 C15.72 239.52 17.12 239.53 18.53 239.54 C22.42 239.56 26.3 239.56 30.18 239.55 C34.36 239.54 38.54 239.56 42.72 239.58 C49.97 239.6 57.22 239.61 64.47 239.61 C74.95 239.61 85.43 239.63 95.91 239.65 C112.91 239.69 129.91 239.72 146.92 239.73 C163.44 239.74 179.95 239.76 196.47 239.79 C197.49 239.79 198.51 239.8 199.56 239.8 C204.66 239.81 209.77 239.82 214.88 239.83 C257.25 239.91 299.63 239.96 342 240 C342 243.63 342 247.26 342 251 C340.22 251 338.44 250.99 336.61 250.99 C294.35 250.92 252.1 250.89 209.84 250.92 C204.64 250.93 199.44 250.93 194.24 250.93 C193.2 250.93 192.17 250.93 191.1 250.93 C174.34 250.94 157.57 250.92 140.81 250.89 C123.61 250.85 106.4 250.85 89.2 250.88 C78.59 250.9 67.97 250.89 57.36 250.85 C50.08 250.83 42.8 250.83 35.52 250.86 C31.32 250.88 27.12 250.89 22.92 250.85 C19.07 250.82 15.23 250.83 11.38 250.87 C9.99 250.88 8.6 250.87 7.21 250.84 C-3.15 250.68 -3.15 250.68 -7.76 253.98 C-10.01 256.22 -12 258.54 -14 261 C-15.06 261.95 -16.13 262.87 -17.25 263.75 C-20.02 265.99 -22.52 268.45 -25 271 C-29.51 275.61 -34.11 280.01 -39 284.22 C-41.79 286.7 -44.38 289.37 -46.99 292.03 C-48.97 293.97 -51.01 295.77 -53.12 297.56 C-56.75 300.69 -60.37 303.97 -63 308 C-63 308.99 -63 309.98 -63 311 C-56.41 313.28 -50.6 314.44 -43.63 314.37 C-42.74 314.37 -41.85 314.38 -40.93 314.38 C-37.96 314.39 -34.99 314.37 -32.02 314.36 C-29.86 314.36 -27.7 314.36 -25.55 314.37 C-20.86 314.37 -16.18 314.37 -11.5 314.36 C-4.53 314.34 2.43 314.34 9.4 314.34 C21.11 314.35 32.83 314.34 44.54 314.32 C56.14 314.3 67.74 314.29 79.34 314.28 C80.06 314.28 80.78 314.28 81.52 314.28 C85.19 314.28 88.85 314.28 92.52 314.28 C118.46 314.27 144.41 314.25 170.35 314.23 C195.55 314.2 220.75 314.18 245.95 314.16 C246.73 314.16 247.51 314.16 248.31 314.16 C256.11 314.16 263.92 314.16 271.72 314.15 C287.62 314.14 303.51 314.14 319.41 314.13 C320.14 314.13 320.87 314.13 321.63 314.13 C370.42 314.1 419.21 314.05 468 314 C467.26 313.95 466.51 313.91 465.74 313.86 C458.63 313.42 451.51 312.98 444.39 312.54 C440.74 312.31 437.08 312.08 433.43 311.86 C405.5 310.15 405.5 310.15 393.38 309.01 C392.6 308.94 391.83 308.87 391.04 308.8 C381.06 307.79 372.44 303.75 365 297 C364.38 296.45 363.77 295.9 363.13 295.33 C355.06 287.2 352.37 275.77 352.33 264.62 C352.34 263.39 352.36 262.15 352.37 260.92 C352.36 259.57 352.36 258.23 352.35 256.89 C352.33 253.28 352.34 249.68 352.36 246.08 C352.38 242.28 352.37 238.48 352.36 234.69 C352.36 228.32 352.38 221.96 352.4 215.59 C352.44 208.25 352.44 200.92 352.42 193.58 C352.4 186.49 352.41 179.39 352.43 172.3 C352.43 169.3 352.43 166.29 352.42 163.29 C352.42 159.75 352.43 156.21 352.46 152.67 C352.46 151.38 352.46 150.09 352.46 148.8 C352.4 137.61 354.47 127.9 361.82 119.14 C368.72 112.36 376.24 107.89 386 107 C386.84 106.89 387.68 106.79 388.55 106.68 C403.57 105.04 418.97 105.71 434 107 C433.97 106.56 433.97 106.56 433.82 104.36 C433.33 93.69 435.39 85.06 442.31 76.56 C452.16 66.29 465.42 63.21 479.21 62.79 C484.35 62.69 489.49 62.67 494.63 62.68 C497.83 62.69 501.03 62.66 504.23 62.64 C549.71 62.5 549.71 62.5 565 77 C571.79 84.3 574.22 91.49 574.07 101.3 C574.07 101.63 574.07 101.63 574.05 103.26 C574.04 104.84 574.02 106.42 574 108 C574.96 107.98 575.92 107.97 576.91 107.95 C580.55 107.9 584.18 107.86 587.81 107.84 C589.37 107.82 590.93 107.8 592.49 107.77 C609.96 107.49 623.87 109.79 637.25 122.09 C646.28 131.93 646.3 144.11 646.29 156.71 C646.3 158.18 646.3 159.65 646.31 161.12 C646.33 165.1 646.33 169.07 646.33 173.04 C646.34 175.53 646.34 178.02 646.35 180.51 C646.36 189.2 646.37 197.89 646.37 206.59 C646.37 214.67 646.39 222.75 646.42 230.83 C646.45 237.79 646.46 244.75 646.46 251.71 C646.46 255.85 646.46 260 646.48 264.15 C646.5 268.05 646.5 271.95 646.49 275.85 C646.49 277.28 646.49 278.7 646.5 280.13 C646.6 292.51 644.37 302.46 636 312 C635.34 312.66 634.68 313.32 634 314 C634.55 314.09 634.55 314.09 637.33 314.52 C657.88 317.83 657.88 317.83 665 323 C665 325.25 665 325.25 664 328 C638.77 349.35 570.75 336.67 539.99 335.07 C539.32 335.03 538.65 335 537.95 334.96 C534.77 334.8 531.59 334.63 528.4 334.46 C522.93 334.17 517.48 333.92 512 334 C513.79 334.42 515.58 334.83 517.38 335.25 C517.94 335.38 518.51 335.52 519.1 335.65 C522.6 336.47 526.1 337.23 529.62 337.95 C530.41 338.11 531.2 338.28 532.01 338.45 C533.55 338.77 535.1 339.08 536.64 339.38 C542.59 340.63 547.65 342.65 552 347 C551.94 349.38 551.94 349.38 551 352 C537.29 365 508.58 365.47 490.75 367.5 C489.86 367.6 488.96 367.71 488.04 367.81 C402.66 377.62 316.23 379.79 111.77 378.2 C106.38 378.01 100.98 377.84 95.59 377.67 C39.98 375.89 -16.84 374 -71.88 365.5 C-72.5 365.4 -73.13 365.31 -73.78 365.21 C-104.26 360.47 -104.26 360.47 -114 352 C-114.12 349.31 -114.12 349.31 -113 346 C-105.18 339.43 -89.02 335.67 -79 336 C-79.28 335.47 -79.55 334.94 -79.84 334.39 C-80.2 333.68 -80.56 332.98 -80.94 332.25 C-81.3 331.55 -81.66 330.86 -82.03 330.14 C-85.02 323.55 -85.11 315.39 -83.35 308.43 C-81 302.67 -77.31 298.41 -73 294 C-72.74 293.74 -72.74 293.74 -71.44 292.4 C-65.48 286.3 -59.5 280.28 -52.99 274.77 C-50.38 272.45 -47.95 269.98 -45.5 267.5 C-41.87 263.83 -38.18 260.32 -34.25 256.96 C-31.14 254.25 -28.1 251.48 -25.06 248.69 C-24.77 248.42 -24.77 248.42 -23.3 247.09 C-22.76 246.59 -22.22 246.09 -21.66 245.57 C-21.17 245.13 -20.68 244.68 -20.18 244.22 C-18.07 242.04 -17.87 240.35 -17.87 237.44 C-17.87 237.07 -17.87 237.07 -17.86 235.19 C-17.87 234.37 -17.87 233.55 -17.87 232.71 C-17.87 231.84 -17.86 230.97 -17.86 230.08 C-17.86 227.15 -17.86 224.23 -17.86 221.3 C-17.86 219.21 -17.85 217.12 -17.85 215.03 C-17.84 210.52 -17.83 206.01 -17.83 201.49 C-17.83 194.35 -17.81 187.21 -17.79 180.07 C-17.78 177.63 -17.78 175.19 -17.77 172.74 C-17.77 172.13 -17.77 171.52 -17.77 170.89 C-17.75 163.94 -17.73 156.98 -17.72 150.02 C-17.72 149.7 -17.72 149.7 -17.71 148.1 C-17.69 137.81 -17.68 127.52 -17.67 117.23 C-17.66 106.66 -17.64 96.1 -17.6 85.53 C-17.58 79.6 -17.57 73.66 -17.58 67.73 C-17.58 62.15 -17.57 56.56 -17.54 50.98 C-17.53 48.93 -17.53 46.89 -17.54 44.84 C-17.59 29.44 -16.46 19.02 -6 7 C-5.71 6.65 -5.71 6.65 -4.25 4.89 C-1.36 1.41 -1.36 1.41 0 0 Z M482 102 C481.87 103.59 481.87 103.59 481.88 105.5 C481.87 106.13 481.87 106.76 481.87 107.41 C482 109 482 109 483 110 C484.41 110.09 485.83 110.12 487.24 110.11 C488.15 110.11 489.05 110.11 489.97 110.11 C490.46 110.11 490.46 110.11 492.94 110.1 C493.44 110.1 493.44 110.1 495.96 110.09 C499.16 110.09 502.36 110.08 505.56 110.06 C507.73 110.06 509.89 110.05 512.05 110.05 C517.37 110.04 522.68 110.02 528 110 C529.08 106.13 528.95 104.48 527 101 C520.75 100.97 514.5 100.96 508.26 100.95 C506.13 100.94 504 100.93 501.87 100.92 C498.82 100.91 495.77 100.91 492.72 100.9 C491.77 100.9 490.81 100.89 489.82 100.89 C489.38 100.89 489.38 100.89 487.15 100.89 C486.37 100.88 485.59 100.88 484.79 100.88 C483 101 483 101 482 102 Z " fill="#212935" transform="translate(269,393)"/>
<path d="M0 0 C33.66 0.06 67.31 0.13 100.97 0.23 C104.94 0.24 108.92 0.25 112.89 0.26 C113.68 0.26 114.47 0.27 115.29 0.27 C128.1 0.3 140.91 0.33 153.72 0.35 C166.86 0.37 180 0.41 193.14 0.45 C201.25 0.48 209.36 0.49 217.47 0.5 C223.03 0.5 228.59 0.52 234.15 0.55 C237.36 0.56 240.57 0.57 243.78 0.57 C247.26 0.56 250.74 0.58 254.22 0.6 C255.23 0.6 256.25 0.59 257.29 0.59 C263.51 0.65 267.9 1.17 272.64 5.5 C272.84 5.75 272.84 5.75 273.81 7 C274.21 7.5 274.61 7.99 275.02 8.5 C277.08 11.65 277.12 14.48 277.11 18.11 C277.11 19.15 277.11 20.2 277.11 21.27 C277.11 22.39 277.1 23.51 277.1 24.67 C277.1 25.24 277.1 25.24 277.09 28.15 C277.09 31.21 277.08 34.26 277.07 37.31 C277.06 40.43 277.05 43.55 277.05 46.66 C277.04 52.77 277.02 58.89 277 65 C276.06 65.31 275.12 65.62 274.15 65.95 C258.86 71.06 243.65 77.97 236 93 C233.48 99.19 232.56 104.68 232.58 111.33 C232.57 112.21 232.57 113.1 232.56 114.01 C232.53 116.9 232.53 119.79 232.52 122.68 C232.51 124.7 232.49 126.72 232.48 128.74 C232.43 134.04 232.41 139.33 232.39 144.63 C232.35 153.12 232.29 161.62 232.23 170.12 C232.21 173.08 232.2 176.05 232.19 179.02 C232.18 180.83 232.17 182.64 232.16 184.45 C232.16 185.27 232.16 186.1 232.15 186.95 C232.15 187.33 232.15 187.33 232.14 189.25 C232.14 189.9 232.13 190.56 232.13 191.23 C232 193 232 193 231 196 C191.77 196.09 152.54 196.16 113.31 196.2 C108.68 196.21 104.05 196.21 99.42 196.22 C98.5 196.22 97.58 196.22 96.63 196.22 C81.7 196.24 66.77 196.27 51.84 196.31 C36.52 196.35 21.2 196.37 5.88 196.38 C-3.57 196.38 -13.02 196.4 -22.47 196.43 C-28.95 196.45 -35.44 196.46 -41.92 196.45 C-45.66 196.45 -49.4 196.46 -53.14 196.48 C-56.56 196.5 -59.99 196.5 -63.42 196.48 C-64.65 196.48 -65.89 196.49 -67.13 196.5 C-75.38 196.58 -81.86 195.88 -88.06 190.07 C-88.51 189.43 -88.97 188.79 -89.44 188.12 C-89.91 187.49 -90.38 186.85 -90.87 186.2 C-93.23 181.6 -93.13 176.5 -93.14 171.43 C-93.14 170.8 -93.15 170.16 -93.15 169.51 C-93.16 167.4 -93.16 165.28 -93.16 163.17 C-93.17 161.65 -93.17 160.13 -93.18 158.61 C-93.19 154.49 -93.2 150.37 -93.2 146.25 C-93.2 143.67 -93.21 141.1 -93.21 138.52 C-93.23 130.44 -93.24 122.36 -93.24 114.28 C-93.24 104.98 -93.26 95.68 -93.29 86.38 C-93.31 79.17 -93.32 71.97 -93.32 64.76 C-93.32 60.46 -93.33 56.17 -93.35 51.87 C-93.36 47.82 -93.37 43.78 -93.36 39.73 C-93.36 38.26 -93.36 36.78 -93.37 35.3 C-93.51 14.12 -93.51 14.12 -87.31 7.81 C-86.55 7.21 -85.79 6.62 -85 6 C-84.96 6.28 -84.96 6.28 -84.77 7.71 C-84.42 10.31 -84.05 12.9 -83.69 15.5 C-83.57 16.39 -83.45 17.27 -83.33 18.19 C-81.92 28.02 -79.42 35.15 -72 42 C-69.71 43.64 -67.38 45.15 -64.98 46.63 C-63 48 -63 48 -61.06 50.56 C-56.77 55.64 -49.17 58.71 -42.63 59.31 C-33 59.73 -26.07 58.76 -18 53 C-15.67 50.86 -13.87 48.54 -12 46 C-10.84 44.7 -9.67 43.41 -8.5 42.12 C-0.05 32.41 3.13 25.04 3.36 12.22 C3.03 9.31 2.42 7.05 1.48 4.3 C1.2 3.49 0.93 2.69 0.64 1.86 C0.43 1.24 0.22 0.63 0 0 Z " fill="#304765" transform="translate(380,425)"/>
<path d="M0 0 C11.53 8.89 19.59 20.19 24.78 33.76 C24.93 34.13 24.93 34.13 25.69 35.99 C31.16 51.96 28.7 70.65 21.66 85.6 C21.53 85.9 21.53 85.9 20.82 87.4 C20.14 88.86 19.46 90.31 18.78 91.76 C19.33 91.76 19.88 91.76 20.45 91.75 C53.08 91.69 85.72 91.64 118.35 91.6 C122.27 91.6 126.19 91.6 130.12 91.59 C130.9 91.59 131.68 91.59 132.48 91.59 C145.11 91.58 157.74 91.55 170.37 91.53 C183.33 91.5 196.29 91.48 209.26 91.48 C217.25 91.47 225.25 91.46 233.25 91.43 C238.73 91.42 244.22 91.41 249.71 91.42 C252.87 91.42 256.03 91.42 259.2 91.4 C262.64 91.38 266.07 91.39 269.51 91.4 C270.01 91.39 270.01 91.39 272.5 91.37 C286.19 91.46 298.88 96.32 308.93 105.73 C319.24 117.06 321.27 129.43 321.07 144.4 C321.07 145.66 321.06 146.92 321.06 148.18 C321.05 151.46 321.02 154.73 320.99 158 C320.96 161.36 320.94 164.72 320.93 168.08 C320.9 174.64 320.84 181.2 320.78 187.76 C315.17 187.76 309.56 187.76 303.78 187.76 C303.77 185.96 303.76 184.16 303.75 182.3 C303.72 176.32 303.66 170.34 303.6 164.36 C303.56 160.74 303.53 157.12 303.51 153.5 C303.5 150 303.46 146.5 303.41 142.99 C303.4 141.67 303.39 140.34 303.39 139.01 C303.38 129.24 302.15 120.63 295.4 113.11 C289.24 107.97 281.88 105.64 273.96 105.63 C273.01 105.62 272.06 105.62 271.08 105.61 C270.05 105.62 269.02 105.62 267.95 105.62 C266.85 105.61 265.74 105.61 264.6 105.61 C261.54 105.6 258.48 105.6 255.42 105.6 C252.11 105.6 248.81 105.59 245.51 105.58 C238.29 105.57 231.07 105.56 223.85 105.56 C219.35 105.55 214.84 105.55 210.33 105.55 C197.86 105.53 185.39 105.52 172.92 105.52 C172.12 105.52 171.32 105.52 170.5 105.52 C169.7 105.52 168.9 105.52 168.07 105.52 C166.45 105.52 164.83 105.52 163.21 105.52 C162.41 105.52 161.6 105.52 160.78 105.52 C147.74 105.51 134.7 105.5 121.65 105.47 C108.27 105.45 94.88 105.44 81.5 105.43 C73.98 105.43 66.47 105.43 58.95 105.41 C52.55 105.39 46.16 105.39 39.76 105.4 C36.49 105.4 33.23 105.4 29.96 105.39 C26.43 105.37 22.89 105.38 19.36 105.39 C18.84 105.39 18.84 105.39 16.21 105.37 C15.27 105.37 14.33 105.38 13.35 105.39 C12.54 105.39 11.72 105.38 10.88 105.38 C8.24 105.85 7.4 106.66 5.78 108.76 C3.19 115.3 2.54 123.03 4.78 129.76 C4.89 132.87 4.69 135.96 4.53 139.07 C4.52 139.49 4.52 139.49 4.45 141.62 C4.17 147.48 3.56 152.14 -0.9 156.34 C-1.48 156.75 -2.06 157.15 -2.66 157.57 C-5.59 159.9 -6.84 161.75 -8.16 165.26 C-10.5 171.25 -14.88 174.08 -20.48 176.89 C-27.32 179.05 -37.17 179.2 -43.78 176.26 C-47.42 174.03 -49.91 170.85 -52.57 167.57 C-54.22 165.76 -54.22 165.76 -57.22 164.26 C-61.65 162.04 -64.52 158.89 -67.22 154.76 C-67.98 152.46 -68.44 150.33 -68.73 147.93 C-69.22 145.76 -69.22 145.76 -70.64 143.54 C-73.11 139.19 -73.68 134.49 -74.59 129.62 C-76.96 117.86 -83.18 109.96 -92.22 102.26 C-105.1 91.25 -111.31 78.73 -112.88 61.87 C-114.37 41.79 -107.98 24.81 -94.97 9.57 C-70.03 -17.06 -29.6 -21.47 0 0 Z " fill="#1E2838" transform="translate(373.21875,301.2421875)"/>
<path d="M0 0 C1.3 0 2.6 0 3.89 0.01 C7.43 0.01 10.97 0.03 14.51 0.05 C18.29 0.07 22.08 0.08 25.87 0.09 C33.15 0.11 40.44 0.14 47.73 0.17 C53.46 0.2 59.19 0.22 64.92 0.24 C82.83 0.31 100.73 0.39 118.64 0.5 C127.83 0.55 137.03 0.6 146.22 0.64 C152.86 0.67 159.49 0.71 166.12 0.75 C170.02 0.78 173.93 0.8 177.83 0.81 C181.45 0.82 185.06 0.85 188.68 0.88 C189.99 0.88 191.31 0.89 192.62 0.89 C202.76 0.91 213.15 1.15 220.88 8.65 C229.35 18.03 229.35 28.08 229.33 40.2 C229.33 40.71 229.33 40.71 229.33 43.31 C229.33 45.47 229.33 47.63 229.32 49.78 C229.32 53.09 229.32 56.41 229.33 59.72 C229.33 61.82 229.33 63.91 229.33 66.01 C229.33 67.01 229.33 68 229.33 69.02 C229.33 69.94 229.33 70.85 229.32 71.79 C229.32 72.2 229.32 72.2 229.32 74.24 C229.19 76.21 229.19 76.21 228.19 78.21 C226.71 78.24 225.23 78.25 223.75 78.27 C222.93 78.28 222.11 78.29 221.26 78.31 C219.19 78.21 219.19 78.21 218.19 77.21 C218.08 75.64 218.04 74.07 218.02 72.5 C218.01 71.49 217.99 70.49 217.98 69.45 C217.97 68.9 217.97 68.9 217.95 66.12 C217.92 64.4 217.9 62.68 217.87 60.96 C217.81 56.7 217.76 52.45 217.72 48.2 C217.69 45.82 217.66 43.44 217.62 41.07 C217.59 38.83 217.56 36.59 217.55 34.36 C217.27 16.88 217.27 16.88 212.19 10.21 C212.19 9.22 212.19 8.23 212.19 7.21 C208.23 6.88 204.27 6.55 200.19 6.21 C199.74 7.59 199.28 8.97 198.82 10.4 C198.03 12.79 197.27 15.05 196.15 17.31 C194.84 21.27 194.96 24.88 195.03 29.02 C195.04 29.88 195.04 30.73 195.05 31.61 C195.07 34.33 195.1 37.05 195.13 39.77 C195.46 72.07 195.46 72.07 190.19 79.21 C189.52 80.21 188.86 81.21 188.19 82.21 C188.52 82.87 188.85 83.53 189.19 84.21 C170.49 89.37 152.17 92.65 132.9 94.89 C131.18 95.09 129.46 95.3 127.74 95.51 C123.01 96.08 118.39 96.34 113.63 96.27 C113 96.27 112.38 96.26 111.73 96.26 C110.22 96.25 108.7 96.23 107.19 96.21 C107.17 95.71 107.17 95.71 107.08 93.17 C106.45 79.52 106.45 79.52 103.19 74.21 C100.26 71.53 98.34 70.83 94.4 70.79 C93.45 70.77 92.5 70.76 91.52 70.74 C90.51 70.74 89.49 70.74 88.44 70.74 C87.39 70.73 86.34 70.72 85.26 70.72 C83.04 70.71 80.82 70.7 78.6 70.71 C75.2 70.71 71.81 70.67 68.41 70.62 C66.25 70.62 64.1 70.61 61.94 70.61 C60.93 70.6 59.91 70.58 58.86 70.57 C51.86 70.63 51.86 70.63 48.56 73.48 C47.28 76.04 46.67 77.59 46.58 80.42 C46.55 81.17 46.52 81.92 46.49 82.69 C46.47 83.46 46.46 84.23 46.44 85.02 C46.43 85.42 46.43 85.42 46.35 87.41 C46.28 89.34 46.23 91.27 46.19 93.21 C31.33 92.93 16.75 89.96 2.19 87.21 C1.28 87.04 0.38 86.87 -0.56 86.7 C-8.33 85.21 -15.48 83.24 -22.62 79.77 C-23.19 79.49 -23.76 79.22 -24.35 78.93 C-30.24 75.83 -33.19 71.19 -35.81 65.21 C-36.98 60.74 -37 56.35 -37.05 51.76 C-37.05 50.95 -37.06 50.13 -37.07 49.3 C-37.08 47.58 -37.09 45.86 -37.1 44.15 C-37.11 42.4 -37.13 40.66 -37.16 38.92 C-37.55 16.42 -37.55 16.42 -29.28 7.45 C-20.8 0.31 -10.54 -0.08 0 0 Z " fill="#F8C727" transform="translate(671.8076171875,510.79150390625)"/>
<path d="M0 0 C4.07 1.34 8.04 2.8 12.01 4.41 C18.8 7.07 25.71 8.89 32.81 10.5 C33.44 10.65 34.07 10.79 34.71 10.94 C46.71 13.71 58.79 15.72 70.97 17.49 C71.63 17.59 72.28 17.68 72.96 17.78 C74.74 18.04 76.53 18.29 78.31 18.54 C81 19 81 19 83 20 C83.31 22.33 83.31 22.33 83.44 25.25 C83.88 31.08 84.95 34.07 89.25 38.12 C99.7 45.25 112.97 46.49 125.25 44.46 C131.17 43.11 135.88 41.23 141 38 C141.66 38 142.32 38 143 38 C144.93 34.65 145.55 31.55 146.12 27.75 C146.21 27.21 146.21 27.21 146.63 24.48 C146.75 23.66 146.88 22.84 147 22 C147.97 21.91 148.95 21.82 149.95 21.73 C209.74 16.14 209.74 16.14 237.14 6.57 C239.4 5.88 241.68 5.45 244 5 C244.09 15.8 244.16 26.59 244.21 37.39 C244.23 42.4 244.26 47.42 244.3 52.43 C244.35 57.28 244.37 62.12 244.38 66.96 C244.39 68.81 244.4 70.65 244.42 72.49 C244.64 91.63 244.64 91.63 240 98 C239.48 98.51 238.97 99.02 238.44 99.55 C236.54 101.46 235.88 103.49 235 106 C232.36 106 229.72 106 227 106 C227.33 104.68 227.66 103.36 228 102 C227.59 102.83 227.17 103.65 226.75 104.5 C225.08 106.58 224.28 106.97 221.58 107.27 C220.62 107.25 219.66 107.23 218.67 107.21 C217.6 107.19 216.52 107.16 215.41 107.14 C209.75 106.91 204.1 106.55 198.45 106.13 C197.14 106.04 195.83 105.94 194.51 105.85 C190.97 105.6 187.44 105.34 183.9 105.08 C180.14 104.81 176.38 104.54 172.62 104.27 C165.46 103.75 158.31 103.24 151.16 102.72 C141.61 102.02 132.07 101.34 122.52 100.65 C114.08 100.04 105.63 99.43 97.18 98.82 C94.23 98.6 91.29 98.39 88.34 98.17 C87.63 98.12 86.91 98.07 86.18 98.02 C77.01 97.35 67.84 96.71 58.67 96.11 C55.8 95.92 52.93 95.73 50.06 95.54 C47.57 95.37 45.08 95.22 42.59 95.07 C35.55 94.61 28.64 93.92 21.7 92.59 C21.09 92.48 20.48 92.36 19.86 92.24 C13.15 90.84 8.56 87.45 4.62 81.94 C0.85 75.1 -0.16 68.84 -0.11 61.08 C-0.11 60.41 -0.11 59.75 -0.11 59.06 C-0.11 56.89 -0.11 54.71 -0.1 52.54 C-0.1 51.02 -0.09 49.51 -0.09 47.99 C-0.09 44.02 -0.08 40.04 -0.07 36.07 C-0.06 32 -0.05 27.94 -0.05 23.88 C-0.04 15.92 -0.02 7.96 0 0 Z " fill="#F3BF23" transform="translate(635,596)"/>
<path d="M0 0 C0.66 0.66 1.32 1.32 2 2 C2.46 2.46 2.92 2.91 3.39 3.38 C4.54 4.54 5.69 5.7 6.83 6.87 C10.15 10.23 13.48 13.43 17.12 16.44 C25.8 24.06 28.16 32.28 30.57 43.15 C32.84 52.84 32.84 52.84 35 55 C35.22 56.35 35.43 57.71 35.62 59.06 C36.83 64.69 39.72 68.24 44 72 C44.99 72.5 45.98 72.99 47 73.5 C50.72 75.36 52.52 77.78 55 81.06 C59.75 85.66 65.41 86.56 71.81 86.5 C72.16 86.5 72.16 86.5 73.92 86.49 C81.41 86.24 87.05 83.88 92.44 78.62 C93.68 76.54 94.48 74.8 95.31 72.56 C96.79 68.78 99.15 66.9 102.38 64.55 C106.76 60.35 106.44 54.43 106.69 48.75 C106.73 47.94 106.78 47.13 106.83 46.3 C107.07 41.43 106.84 36.83 106.22 31.99 C105.64 26.75 106.2 21.7 108.44 16.94 C110 15 110 15 112 14 C113.48 13.9 114.96 13.87 116.43 13.87 C117.37 13.86 118.31 13.86 119.28 13.86 C119.8 13.86 119.8 13.86 122.42 13.86 C123.52 13.86 124.62 13.85 125.75 13.85 C128.8 13.84 131.86 13.84 134.91 13.84 C138.2 13.84 141.49 13.83 144.79 13.82 C151.99 13.81 159.19 13.8 166.39 13.8 C170.89 13.8 175.39 13.79 179.89 13.79 C192.35 13.78 204.8 13.77 217.26 13.76 C218.05 13.76 218.85 13.76 219.67 13.76 C220.47 13.76 221.27 13.76 222.1 13.76 C223.72 13.76 225.34 13.76 226.96 13.76 C227.76 13.76 228.57 13.76 229.39 13.76 C242.4 13.76 255.41 13.74 268.42 13.71 C281.78 13.69 295.14 13.68 308.5 13.68 C316 13.68 323.5 13.67 331 13.65 C337.39 13.64 343.78 13.63 350.17 13.64 C353.43 13.64 356.69 13.64 359.94 13.63 C363.48 13.61 367.02 13.62 370.56 13.63 C371.58 13.62 372.6 13.62 373.65 13.61 C383.85 13.68 392.48 15.83 400 23 C405.09 28.76 407.26 34.53 407.23 42.28 C407.23 42.88 407.23 43.47 407.23 44.09 C407.23 46.03 407.21 47.98 407.2 49.93 C407.19 51.29 407.19 52.65 407.19 54.01 C407.18 57.57 407.16 61.13 407.14 64.69 C407.12 68.33 407.11 71.97 407.1 75.61 C407.08 82.74 407.04 89.87 407 97 C407.65 96.99 408.29 96.99 408.96 96.98 C411.89 96.96 414.82 96.95 417.75 96.94 C418.77 96.93 419.78 96.92 420.83 96.91 C421.81 96.91 422.79 96.91 423.8 96.9 C424.7 96.9 425.6 96.89 426.53 96.89 C429 97 429 97 433 98 C433 101.3 433 104.6 433 108 C432.51 107.99 432.51 107.99 430.01 107.97 C393.93 107.62 393.93 107.62 377 110 C376.01 107.36 375.02 104.72 374 102 C378.07 100.17 381.61 98.84 386 98 C386.07 91.32 386.12 84.65 386.16 77.97 C386.17 74.87 386.19 71.77 386.23 68.67 C386.27 65.1 386.28 61.53 386.29 57.96 C386.31 56.85 386.32 55.75 386.34 54.61 C386.34 48.9 386.26 44.77 383 40 C378.97 36.27 375.95 34.88 370.51 34.86 C369.58 34.86 368.66 34.85 367.7 34.84 C366.68 34.84 365.67 34.84 364.62 34.84 C363.54 34.84 362.46 34.83 361.34 34.83 C358.34 34.81 355.34 34.81 352.33 34.8 C349.1 34.79 345.86 34.78 342.62 34.76 C337.01 34.74 331.4 34.72 325.79 34.71 C317.68 34.69 309.57 34.66 301.46 34.63 C288.3 34.58 275.14 34.54 261.98 34.5 C249.2 34.46 236.41 34.42 223.63 34.37 C222.84 34.37 222.05 34.37 221.24 34.36 C217.29 34.35 213.34 34.34 209.39 34.32 C176.59 34.21 143.8 34.1 111 34 C111.21 34.54 111.42 35.08 111.64 35.64 C111.92 36.36 112.19 37.07 112.48 37.81 C112.75 38.52 113.02 39.22 113.3 39.95 C115.87 47.52 114.33 56.89 111 64 C108.89 67.21 106.52 70.1 104 73 C103.17 74.02 102.33 75.04 101.5 76.06 C101.1 76.53 100.7 76.99 100.29 77.47 C99.34 78.6 98.44 79.76 97.56 80.93 C92.56 87.31 86.19 92 78.05 93.31 C68.61 94.22 59.79 93.22 51.95 87.5 C49.69 85.62 47.61 83.64 45.58 81.52 C43.74 79.75 41.75 78.31 39.69 76.81 C28.04 67.74 26.14 56.63 24.33 42.68 C24.22 41.79 24.11 40.91 24 40 C17.07 49.01 17.71 59.34 17.74 70.22 C17.74 71.74 17.73 73.27 17.73 74.79 C17.72 78.91 17.72 83.03 17.73 87.15 C17.74 91.47 17.73 95.8 17.73 100.12 C17.72 107.38 17.73 114.63 17.74 121.89 C17.75 130.27 17.75 138.64 17.74 147.02 C17.73 154.23 17.73 161.44 17.73 168.64 C17.73 172.94 17.73 177.24 17.73 181.54 C17.72 185.58 17.73 189.62 17.74 193.66 C17.74 195.14 17.74 196.62 17.73 198.1 C17.68 216.76 17.68 216.76 23.29 223.68 C29.8 228.73 36.69 228.43 44.57 228.4 C45.85 228.4 47.13 228.41 48.41 228.42 C51.92 228.44 55.43 228.44 58.94 228.43 C62.72 228.43 66.51 228.45 70.3 228.46 C76.85 228.49 83.41 228.5 89.97 228.5 C99.45 228.51 108.92 228.53 118.4 228.56 C133.79 228.6 149.17 228.63 164.55 228.65 C179.49 228.67 194.43 228.7 209.37 228.74 C209.83 228.74 209.83 228.74 212.16 228.74 C216.78 228.76 221.4 228.77 226.02 228.78 C264.35 228.87 302.67 228.94 341 229 C341.33 228.01 341.66 227.02 342 226 C342 234.91 342 243.82 342 253 C341.67 253 341.34 253 341 253 C341 249.04 341 245.08 341 241 C340.12 241 340.12 241 335.69 241.01 C294.08 241.12 252.48 241.2 210.88 241.26 C205.76 241.26 200.65 241.27 195.53 241.27 C195.02 241.28 195.02 241.28 192.44 241.28 C175.93 241.3 159.42 241.34 142.91 241.39 C125.98 241.43 109.05 241.46 92.12 241.47 C81.66 241.48 71.21 241.5 60.76 241.54 C53.59 241.57 46.43 241.57 39.27 241.57 C35.13 241.56 31 241.57 26.86 241.6 C23.08 241.62 19.29 241.62 15.51 241.6 C14.14 241.6 12.77 241.61 11.4 241.62 C9.54 241.64 7.68 241.63 5.82 241.62 C4.78 241.62 3.75 241.62 2.68 241.62 C0 241 0 241 -2.33 238.69 C-3.88 236.2 -4.5 235.12 -4.5 232.28 C-4.51 231.57 -4.52 230.87 -4.53 230.15 C-4.53 229.39 -4.52 228.63 -4.51 227.84 C-4.51 227.02 -4.52 226.21 -4.53 225.37 C-4.54 222.63 -4.53 219.89 -4.52 217.16 C-4.52 215.19 -4.53 213.23 -4.54 211.27 C-4.56 205.93 -4.55 200.6 -4.54 195.27 C-4.53 189.68 -4.54 184.1 -4.54 178.51 C-4.55 168.52 -4.54 158.53 -4.52 148.55 C-4.5 139.51 -4.5 130.47 -4.52 121.43 C-4.54 110.92 -4.55 100.42 -4.54 89.91 C-4.53 84.35 -4.53 78.79 -4.55 73.23 C-4.56 68 -4.55 62.77 -4.53 57.54 C-4.52 55.63 -4.52 53.71 -4.53 51.8 C-4.63 27.85 -4.63 27.85 3.75 19.31 C4.36 18.67 4.98 18.03 5.61 17.36 C6.07 16.91 6.53 16.46 7 16 C6.58 15.52 6.16 15.04 5.72 14.54 C5.17 13.91 4.63 13.28 4.06 12.62 C3.52 12 2.97 11.37 2.41 10.73 C-0.52 7.14 -0.08 4.48 0 0 Z " fill="#CFD7DC" transform="translate(270,392)"/>
<path d="M0 0 C0.68 0.07 1.36 0.14 2.06 0.21 C8.36 0.84 14.58 1.14 20.91 1.12 C21.38 1.12 21.38 1.12 23.75 1.13 C26.88 1.13 30 1.12 33.13 1.12 C35.4 1.12 37.67 1.12 39.94 1.12 C44.86 1.12 49.79 1.12 54.71 1.12 C62.04 1.11 69.36 1.11 76.68 1.11 C89.01 1.12 101.33 1.11 113.65 1.11 C125.85 1.1 138.04 1.1 150.24 1.09 C151 1.09 151.76 1.09 152.54 1.09 C156.39 1.09 160.25 1.09 164.1 1.09 C191.39 1.09 218.67 1.08 245.96 1.08 C272.46 1.07 298.97 1.06 325.47 1.05 C326.29 1.05 327.11 1.05 327.95 1.05 C336.16 1.05 344.37 1.05 352.57 1.05 C369.29 1.05 386.01 1.05 402.73 1.04 C403.5 1.04 404.27 1.04 405.06 1.04 C456.37 1.03 507.69 1.02 559 1 C557.88 7.21 555.15 10.61 550.13 14.42 C532.69 25.13 509.07 24.31 489.36 24.26 C487.46 24.26 485.56 24.27 483.66 24.27 C478.48 24.28 473.31 24.28 468.14 24.28 C462.54 24.27 456.95 24.28 451.35 24.29 C440.4 24.3 429.45 24.3 418.51 24.3 C409.6 24.3 400.7 24.3 391.8 24.31 C390.51 24.31 389.23 24.31 387.95 24.31 C386.01 24.31 384.08 24.31 382.14 24.31 C364.18 24.32 346.22 24.32 328.26 24.32 C327.92 24.32 327.92 24.32 326.21 24.32 C322.79 24.32 319.36 24.32 315.94 24.32 C315.6 24.32 315.6 24.32 313.88 24.32 C312.5 24.32 311.13 24.32 309.75 24.32 C288.36 24.31 266.97 24.32 245.58 24.34 C221.49 24.36 197.41 24.37 173.32 24.36 C170.75 24.36 168.18 24.36 165.6 24.36 C164.97 24.36 164.34 24.36 163.68 24.36 C154.16 24.36 144.64 24.37 135.12 24.38 C124.28 24.39 113.44 24.39 102.6 24.38 C97.08 24.37 91.56 24.37 86.04 24.38 C80.97 24.4 75.9 24.39 70.83 24.38 C69.01 24.38 67.19 24.38 65.37 24.39 C45.34 24.47 21.9 24.36 5.81 10.84 C2.89 7.87 0 4.34 0 0 Z " fill="#B5C0C9" transform="translate(203,716)"/>
<path d="M0 0 C4.11 0.77 8.22 1.55 12.32 2.34 C13.72 2.61 15.11 2.88 16.5 3.13 C36.99 6.96 36.99 6.96 42 13 C42 15.44 42 15.44 41 18 C27.25 30.99 -1.4 31.47 -19.25 33.5 C-20.14 33.6 -21.04 33.71 -21.96 33.81 C-107.34 43.62 -193.77 45.79 -398.23 44.2 C-403.62 44.01 -409.02 43.84 -414.41 43.67 C-470.02 41.89 -526.84 40 -581.88 31.5 C-582.5 31.4 -583.13 31.31 -583.78 31.21 C-614.26 26.47 -614.26 26.47 -624 18 C-624.12 15.31 -624.12 15.31 -623 12 C-616.18 7.17 -607.9 5.46 -599.88 3.69 C-598.72 3.42 -597.56 3.16 -596.4 2.89 C-593.6 2.25 -590.8 1.62 -588 1 C-587.54 1.54 -587.09 2.08 -586.62 2.64 C-586 3.35 -585.39 4.07 -584.76 4.8 C-584.16 5.51 -583.56 6.21 -582.94 6.94 C-570.7 19.94 -550.41 23.59 -533.34 24.51 C-532.61 24.55 -531.88 24.6 -531.12 24.64 C-528.73 24.77 -526.33 24.9 -523.93 25.02 C-523.09 25.07 -522.25 25.11 -521.39 25.16 C-503.51 26.08 -485.64 26.44 -467.74 26.59 C-465.05 26.62 -462.36 26.65 -459.67 26.67 C-407.36 27.21 -355.04 27.15 -302.73 27.13 C-292.2 27.12 -281.66 27.13 -271.13 27.13 C-164.2 27.17 -164.2 27.17 -118.23 26.64 C-115.89 26.62 -113.54 26.59 -111.2 26.57 C-94.97 26.41 -78.78 25.94 -62.57 25.09 C-62.2 25.07 -62.2 25.07 -60.28 24.97 C-38.88 23.87 -18.55 20.01 -3 4 C-1.99 2.67 -0.99 1.34 0 0 Z " fill="#D2DADF" transform="translate(779,727)"/>
<path d="M0 0 C12.46 9.16 20.08 22.4 22.75 37.62 C22.83 38.74 22.92 39.85 23 41 C23.06 41.7 23.13 42.4 23.19 43.12 C24.04 59.76 15.6 73.49 6.52 86.7 C3 91.84 0.03 96.67 -1.19 102.88 C-1.46 104.24 -1.72 105.6 -2 107 C-4.48 107.33 -4.48 107.33 -17 109 C-17.34 105.98 -17.67 102.96 -18 99.94 C-18.1 99.09 -18.19 98.24 -18.29 97.37 C-18.55 94.91 -18.79 92.46 -19 90 C-19.07 89.32 -19.14 88.65 -19.21 87.95 C-19.41 84.76 -19.3 83.34 -17.17 80.88 C-16.37 80.3 -15.57 79.72 -14.75 79.12 C-9.48 74.83 -6.73 70.63 -5.66 63.86 C-5.43 59.16 -6.39 55.91 -9 52 C-11.79 49.81 -14.73 49.57 -18.26 49.69 C-21.36 50.24 -22.91 51.73 -25 54 C-27.35 59.26 -27.24 64.18 -27.12 69.88 C-27.12 70.75 -27.11 71.63 -27.1 72.54 C-27.07 74.69 -27.04 76.85 -27 79 C-28.98 79 -30.96 79 -33 79 C-33.17 77.91 -33.34 76.83 -33.52 75.71 C-33.76 74.27 -34 72.82 -34.25 71.38 C-34.36 70.66 -34.47 69.95 -34.58 69.21 C-35.56 63.59 -37.09 59.05 -41.96 55.61 C-44.36 54.89 -46.08 54.9 -48.56 55.19 C-49.33 55.26 -50.09 55.34 -50.88 55.42 C-53.45 56.12 -54.41 56.88 -56 59 C-57.5 63.55 -57.46 67.81 -55.5 72.19 C-52.34 77.65 -48.01 81.22 -42.19 83.5 C-40.45 84.43 -40.45 84.43 -39 86 C-36.62 94.02 -36.7 102.7 -37 111 C-39.06 111.34 -41.12 111.67 -43.19 112 C-43.77 112.1 -44.34 112.19 -44.94 112.29 C-48.33 112.83 -51.57 113.1 -55 113 C-55.21 112.17 -55.42 111.33 -55.63 110.47 C-58.73 98.81 -64.45 92.2 -73.51 84.24 C-82.78 75.9 -89.9 65.62 -91.22 52.87 C-92.13 34.96 -88.16 21.84 -76.69 7.75 C-56.75 -13.96 -23.91 -15.87 0 0 Z " fill="#FAC925" transform="translate(365,311)"/>
<path d="M0 0 C0.94 -0.01 1.88 -0.01 2.85 -0.02 C3.37 -0.02 3.37 -0.02 5.99 -0.01 C7.08 -0.01 8.18 -0.01 9.31 -0.02 C12.37 -0.03 15.42 -0.03 18.47 -0.02 C21.76 -0.02 25.05 -0.03 28.34 -0.04 C34.79 -0.05 41.24 -0.05 47.69 -0.05 C52.94 -0.05 58.18 -0.05 63.43 -0.05 C63.8 -0.05 63.8 -0.05 65.69 -0.05 C67.2 -0.06 68.72 -0.06 70.23 -0.06 C84.46 -0.07 98.68 -0.07 112.91 -0.06 C125.91 -0.05 138.92 -0.07 151.92 -0.09 C165.28 -0.1 178.63 -0.11 191.98 -0.11 C199.48 -0.11 206.98 -0.11 214.47 -0.12 C220.86 -0.14 227.25 -0.14 233.63 -0.13 C236.89 -0.12 240.14 -0.12 243.4 -0.13 C246.94 -0.14 250.47 -0.13 254.01 -0.12 C255.03 -0.13 256.05 -0.13 257.1 -0.14 C267.29 -0.07 275.92 2.09 283.44 9.25 C288.54 15.01 290.7 20.78 290.67 28.54 C290.67 29.13 290.67 29.73 290.67 30.34 C290.67 32.29 290.65 34.24 290.64 36.18 C290.63 37.54 290.63 38.9 290.63 40.26 C290.62 43.82 290.6 47.38 290.58 50.94 C290.56 54.58 290.55 58.22 290.54 61.86 C290.52 68.99 290.48 76.12 290.44 83.25 C291.09 83.25 291.73 83.24 292.4 83.24 C295.33 83.22 298.26 83.2 301.19 83.19 C302.21 83.18 303.22 83.18 304.27 83.17 C305.25 83.16 306.23 83.16 307.24 83.16 C308.14 83.15 309.04 83.15 309.97 83.14 C312.44 83.25 312.44 83.25 316.44 84.25 C316.44 87.55 316.44 90.85 316.44 94.25 C315.95 94.25 315.95 94.25 313.45 94.22 C277.37 93.87 277.37 93.87 260.44 96.25 C259.45 93.61 258.46 90.97 257.44 88.25 C261.51 86.42 265.05 85.09 269.44 84.25 C269.51 77.58 269.57 70.9 269.6 64.23 C269.61 61.12 269.63 58.02 269.67 54.92 C269.71 51.35 269.72 47.79 269.74 44.22 C269.75 43.11 269.77 42 269.78 40.86 C269.78 35.16 269.7 31.03 266.44 26.25 C262.41 22.53 259.4 21.13 253.95 21.12 C253.02 21.11 252.1 21.1 251.15 21.1 C250.13 21.1 249.11 21.1 248.06 21.1 C246.98 21.09 245.9 21.09 244.78 21.08 C241.78 21.07 238.78 21.06 235.77 21.05 C232.54 21.05 229.3 21.03 226.06 21.02 C220.45 21 214.84 20.98 209.23 20.96 C201.12 20.94 193.01 20.91 184.9 20.88 C171.74 20.84 158.58 20.79 145.42 20.75 C132.64 20.71 119.85 20.67 107.07 20.63 C106.28 20.62 105.49 20.62 104.68 20.62 C100.73 20.6 96.78 20.59 92.83 20.58 C60.03 20.46 27.24 20.36 -5.56 20.25 C-5.89 21.24 -6.22 22.23 -6.56 23.25 C-7.88 22.92 -9.2 22.59 -10.56 22.25 C-10.91 15.26 -10.94 8.58 -7.56 2.25 C-5.09 0.13 -3.2 0 0 0 Z " fill="#D5DCE0" transform="translate(386.557900428772,405.7455244064331)"/>
<path d="M0 0 C0.66 -0.01 1.32 -0.02 1.99 -0.03 C4.18 -0.05 6.37 -0.03 8.56 -0.02 C10.14 -0.03 11.71 -0.04 13.29 -0.05 C17.56 -0.08 21.83 -0.07 26.1 -0.06 C29.67 -0.06 33.24 -0.06 36.81 -0.07 C45.23 -0.09 53.65 -0.09 62.07 -0.07 C70.75 -0.04 79.43 -0.06 88.11 -0.1 C95.57 -0.13 103.03 -0.14 110.48 -0.13 C114.94 -0.12 119.39 -0.12 123.84 -0.15 C128.03 -0.17 132.21 -0.16 136.4 -0.13 C137.93 -0.12 139.47 -0.13 141 -0.14 C154 -0.26 154 -0.26 158.24 2.88 C162.27 7.98 165.13 13.92 168.21 19.64 C105.84 19.64 43.47 19.64 -20.79 19.64 C-9.47 -0.16 -9.47 -0.16 0 0 Z " fill="#5E748C" transform="translate(406.78660583496094,679.3583526611328)"/>
<path d="M0 0 C0.72 0.01 1.43 0.02 2.17 0.03 C2.44 0.03 2.44 0.03 3.81 0.06 C3.81 0.39 3.81 0.72 3.81 1.06 C1.83 1.39 -0.15 1.72 -2.19 2.06 C66.45 3.05 135.09 4.04 205.81 5.06 C204.49 6.38 203.17 7.7 201.81 9.06 C201.19 9.96 200.56 10.86 199.92 11.78 C196.42 15.22 191.78 14.68 187.16 14.65 C185.82 14.63 184.47 14.61 183.12 14.59 C181.67 14.58 180.23 14.58 178.78 14.57 C174.78 14.56 170.78 14.52 166.78 14.47 C162.51 14.42 158.24 14.4 153.96 14.38 C144.17 14.32 134.37 14.23 124.57 14.13 C117.32 14.06 110.07 13.99 102.82 13.93 C101.52 13.91 100.22 13.9 98.91 13.89 C92.96 13.84 87 13.79 81.05 13.73 C77.74 13.7 74.43 13.67 71.12 13.65 C70.47 13.64 69.81 13.63 69.14 13.63 C60.6 13.55 52.06 13.47 43.52 13.37 C39.15 13.33 34.78 13.28 30.41 13.24 C27.49 13.21 24.56 13.18 21.63 13.14 C18.42 13.1 15.21 13.07 12 13.04 C11.07 13.03 10.13 13.01 9.17 13 C-3.32 12.9 -3.32 12.9 -6.93 15.15 C-10.16 18.82 -11.3 21.42 -11.36 26.26 C-11.38 27.1 -11.39 27.94 -11.4 28.8 C-11.41 29.71 -11.42 30.62 -11.43 31.55 C-11.43 32.49 -11.44 33.42 -11.45 34.39 C-11.46 36.37 -11.47 38.35 -11.48 40.33 C-11.5 43.35 -11.54 46.37 -11.59 49.4 C-11.6 51.32 -11.61 53.25 -11.61 55.18 C-11.63 56.08 -11.65 56.98 -11.67 57.9 C-11.65 63.62 -10.9 66.66 -7.19 71.06 C2.01 79.49 15 81.56 26.81 84.06 C26.81 84.39 26.81 84.72 26.81 85.06 C11.53 85.79 -3.18 83.74 -16.19 75.06 C-22.92 67.49 -24.33 60.37 -24.43 50.61 C-24.43 49.8 -24.44 48.99 -24.45 48.15 C-24.46 46.43 -24.47 44.72 -24.48 43 C-24.49 41.26 -24.51 39.52 -24.54 37.78 C-24.74 26.28 -24.92 15.35 -16.68 6.31 C-12.03 2.43 -6.05 -0.1 0 0 Z " fill="#FDEF98" transform="translate(659.1875,511.9375)"/>
<path d="M0 0 C0.3 -0 0.3 -0 1.8 -0.02 C3.76 -0.05 5.72 -0.07 7.68 -0.08 C8.36 -0.09 9.03 -0.09 9.73 -0.1 C13.33 -0.12 16.94 -0.14 20.54 -0.16 C23.48 -0.17 26.42 -0.2 29.36 -0.24 C68.94 -0.78 68.94 -0.78 79.54 7.21 C84.65 12.41 86.09 18.43 86.04 25.54 C86.02 26.38 86 27.21 85.98 28.07 C85.94 30.75 85.9 33.43 85.86 36.19 C79.26 36.19 72.66 36.19 65.86 36.19 C65.66 33.46 65.47 30.72 65.27 27.99 C64.79 24.71 64.18 22.26 61.53 20.12 C55.33 16.68 45.67 18.03 38.82 18.02 C37.69 18.02 36.56 18.02 35.4 18.01 C33.03 18.01 30.66 18.01 28.29 18.01 C25.27 18.01 22.25 17.99 19.23 17.98 C16.32 17.96 13.41 17.96 10.5 17.96 C9.43 17.96 8.35 17.95 7.24 17.94 C-4.8 17.98 -4.8 17.98 -8.97 21.93 C-10.47 24.83 -10.65 27.19 -10.83 30.44 C-10.89 31.52 -10.96 32.6 -11.03 33.71 C-11.07 34.53 -11.1 35.35 -11.14 36.19 C-16.93 36.3 -22.43 36.19 -28.14 35.19 C-28.84 15.13 -28.84 15.13 -22.83 7.69 C-16.31 1.9 -8.48 0.1 0 0 Z " fill="#DA9714" transform="translate(744.14111328125,466.80712890625)"/>
<path d="M0 0 C12.46 9.16 20.08 22.4 22.75 37.62 C22.83 38.74 22.92 39.85 23 41 C23.06 41.7 23.13 42.4 23.19 43.12 C24.04 59.76 15.6 73.49 6.52 86.7 C3 91.84 0.03 96.67 -1.19 102.88 C-1.27 103.27 -1.27 103.27 -1.67 105.24 C-1.78 105.82 -1.89 106.4 -2 107 C-3.98 107.33 -5.96 107.66 -8 108 C-7.95 95.28 -2.35 86.62 5.11 76.73 C13.61 64.48 16.01 49.76 13.71 35.17 C11.22 23.85 3.43 13.24 -5.98 6.6 C-18.28 -0.8 -31.67 -2.81 -45.69 -0.38 C-58.38 3.1 -69.41 10.9 -76.5 22 C-82.99 34.13 -84.1 47.62 -80.44 60.88 C-76.16 72.65 -69.54 79.89 -60.22 87.99 C-53.97 93.54 -48.23 100.06 -47.12 108.62 C-47.08 109.74 -47.04 110.85 -47 112 C-49.64 112.33 -52.28 112.66 -55 113 C-55.21 112.17 -55.42 111.33 -55.63 110.47 C-58.73 98.81 -64.45 92.2 -73.51 84.24 C-82.78 75.9 -89.9 65.62 -91.22 52.87 C-92.13 34.96 -88.16 21.84 -76.69 7.75 C-56.75 -13.96 -23.91 -15.87 0 0 Z " fill="#F7F8EB" transform="translate(365,311)"/>
<path d="M0 0 C0.33 0.99 0.66 1.98 1 3 C1.66 3 2.32 3 3 3 C3.07 14.04 3.12 25.08 3.16 36.12 C3.17 41.25 3.19 46.38 3.23 51.5 C3.26 56.46 3.28 61.41 3.28 66.36 C3.29 68.25 3.3 70.13 3.32 72.02 C3.51 95.41 3.51 95.41 -3.25 102.94 C-10.48 109.41 -18.6 110.21 -28 110 C-28.33 109.34 -28.66 108.68 -29 108 C-28.67 107.67 -28.67 107.67 -27 106 C-26.3 104.68 -25.63 103.35 -25 102 C-24.34 102 -23.68 102 -23 102 C-20.64 95.92 -19.57 90.69 -19.66 84.18 C-19.66 83.35 -19.66 82.51 -19.66 81.66 C-19.66 78.95 -19.68 76.24 -19.71 73.53 C-19.71 71.63 -19.72 69.74 -19.72 67.85 C-19.73 62.89 -19.76 57.94 -19.79 52.98 C-19.82 47.91 -19.84 42.84 -19.85 37.78 C-19.89 27.85 -19.94 17.93 -20 8 C-19.66 7.9 -19.66 7.9 -17.92 7.39 C-17.47 7.26 -17.47 7.26 -15.2 6.59 C-14.31 6.32 -13.41 6.06 -12.5 5.79 C-9.63 4.88 -7.03 3.72 -4.38 2.31 C-3.54 1.88 -2.7 1.44 -1.84 0.99 C-1.23 0.66 -0.62 0.34 0 0 Z " fill="#65360E" transform="translate(898,592)"/>
<path d="M0 0 C0.96 2.88 1.11 4.7 1.06 7.69 C1.05 8.5 1.04 9.3 1.04 10.14 C1.03 10.44 1.03 10.44 1 12 C0.67 11.01 0.34 10.02 0 9 C-88.44 9 -176.88 9 -268 9 C-265.17 3.33 -265.17 3.33 -263 1 C-260.94 0.5 -260.94 0.5 -258.52 0.49 C-257.6 0.48 -256.68 0.47 -255.73 0.46 C-254.71 0.47 -253.7 0.47 -252.65 0.48 C-251.58 0.47 -250.5 0.47 -249.39 0.46 C-246.4 0.44 -243.41 0.44 -240.42 0.45 C-237.19 0.46 -233.97 0.44 -230.74 0.42 C-225.15 0.4 -219.57 0.39 -213.98 0.39 C-205.9 0.39 -197.82 0.37 -189.74 0.35 C-176.63 0.31 -163.52 0.28 -150.41 0.27 C-137.67 0.26 -124.94 0.24 -112.2 0.21 C-111.42 0.21 -110.63 0.2 -109.82 0.2 C-105.89 0.19 -101.95 0.18 -98.01 0.17 C-65.34 0.09 -32.67 0.04 0 0 Z " fill="#31425A" transform="translate(611,662)"/>
<path d="M0 0 C0.79 0.12 1.58 0.24 2.4 0.37 C2.82 0.44 2.82 0.44 4.94 0.8 C5.36 0.88 5.36 0.88 7.52 1.23 C15 2.54 22.67 4.16 28.94 8.68 C28.94 10.93 28.94 10.93 27.94 13.68 C2.72 35.01 -65.23 22.35 -95.99 20.75 C-96.32 20.73 -96.32 20.73 -98.02 20.64 C-101.19 20.48 -104.37 20.31 -107.55 20.14 C-113.4 19.83 -119.21 19.6 -125.06 19.68 C-124.48 16.59 -123.79 13.54 -123.02 10.49 C-122.84 9.78 -122.66 9.06 -122.48 8.32 C-122.41 8.05 -122.41 8.05 -122.06 6.68 C-111.7 6.42 -101.44 6.81 -91.11 7.54 C-76.94 8.52 -62.83 8.9 -48.62 8.93 C-48.17 8.93 -48.17 8.93 -45.88 8.94 C-34.23 9 -23.48 8.91 -12.62 4.18 C-12.13 3.97 -12.13 3.97 -9.63 2.9 C-7.06 1.68 -7.06 1.68 -5.66 0.58 C-3.54 -0.62 -2.39 -0.37 0 0 Z " fill="#B6C2CA" transform="translate(905.0625,707.3203125)"/>
<path d="M0 0 C0.37 0 0.37 0 2.24 0 C2.67 0 2.67 0 4.83 -0.01 C5.78 -0.01 6.72 0 7.69 0.01 C8.69 0.01 9.69 0.01 10.72 0 C13.49 -0 16.27 0.01 19.05 0.02 C22.04 0.04 25.03 0.03 28.03 0.03 C33.21 0.03 38.4 0.04 43.59 0.06 C51.09 0.08 58.59 0.09 66.09 0.09 C78.25 0.1 90.42 0.12 102.59 0.15 C114.41 0.17 126.23 0.2 138.05 0.21 C138.78 0.21 139.51 0.21 140.26 0.21 C143.91 0.21 147.56 0.22 151.22 0.22 C181.54 0.25 211.86 0.31 242.19 0.37 C242.85 1.69 242.85 1.69 246.19 8.37 C163.03 8.37 79.87 8.37 -5.81 8.37 C-2.68 0.55 -2.68 0.55 0 0 Z " fill="#293B55" transform="translate(357.8129321336746,649.6274045109749)"/>
<path d="M0 0 C0.4 -0 0.4 -0 2.4 -0.03 C3.25 -0.03 4.11 -0.03 4.99 -0.03 C5.87 -0.03 6.74 -0.03 7.65 -0.04 C9.51 -0.04 11.37 -0.05 13.22 -0.04 C16.07 -0.04 18.92 -0.06 21.76 -0.09 C23.57 -0.09 25.37 -0.09 27.18 -0.09 C28.03 -0.1 28.88 -0.11 29.76 -0.12 C30.56 -0.11 31.35 -0.1 32.17 -0.1 C32.52 -0.1 32.52 -0.1 34.28 -0.1 C36.76 0.4 37.64 1.27 39.15 3.27 C39.54 4.98 39.54 4.98 39.55 6.86 C39.57 7.56 39.58 8.27 39.59 9 C39.59 9.76 39.59 10.52 39.58 11.3 C39.59 12.09 39.59 12.87 39.6 13.68 C39.6 15.34 39.6 17 39.59 18.66 C39.59 21.2 39.61 23.74 39.65 26.27 C39.65 27.89 39.65 29.5 39.64 31.11 C39.65 31.49 39.65 31.49 39.68 33.41 C39.63 37.08 39.57 38.74 37.25 41.72 C30.38 46.8 21.37 47.04 13.15 46.27 C6.4 45.14 0.45 43.72 -4.85 39.27 C-6.4 36.18 -6.01 32.9 -6.02 29.49 C-6.02 28.72 -6.03 27.95 -6.03 27.16 C-6.03 25.53 -6.04 23.91 -6.04 22.28 C-6.04 19.78 -6.06 17.29 -6.08 14.79 C-6.08 13.21 -6.08 11.64 -6.08 10.06 C-6.09 9.31 -6.1 8.56 -6.1 7.79 C-6.08 2.49 -5.61 0.04 0 0 Z " fill="#CDD6DB" transform="translate(730.851318359375,586.725341796875)"/>
<path d="M0 0 C2.38 2.25 2.38 2.25 4 5 C4 8.21 3.42 9.53 1.3 11.93 C-1.23 14.2 -3.89 15.88 -6.83 17.53 C-7.11 17.69 -7.11 17.69 -8.51 18.49 C-10.28 19.5 -12.04 20.5 -13.81 21.5 C-14.99 22.17 -16.16 22.84 -17.34 23.51 C-19.57 24.79 -21.81 26.06 -24.05 27.33 C-27.37 29.21 -30.69 31.1 -34 33 C-27.11 37.99 -20.06 42.44 -12.69 46.69 C2.32 55.34 2.32 55.34 4 59.44 C4 62.93 3.32 64.39 1 67 C-3.8 68.28 -6.44 68.33 -10.88 65.75 C-11.48 65.38 -12.07 65.01 -12.69 64.62 C-13.34 64.24 -13.99 63.85 -14.67 63.45 C-16.2 62.54 -17.72 61.61 -19.25 60.68 C-21.88 59.07 -24.52 57.48 -27.17 55.9 C-56.65 38.24 -56.65 38.24 -57.52 35.19 C-57.72 33.15 -57.71 31.94 -57 30 C-54.38 27.09 -51.85 25.16 -48.39 23.34 C-47.95 23.1 -47.95 23.1 -45.69 21.89 C-44.74 21.39 -43.79 20.89 -42.81 20.38 C-35.69 16.56 -28.63 12.69 -21.69 8.56 C-20.99 8.15 -20.3 7.74 -19.59 7.32 C-16.75 5.65 -13.93 3.96 -11.13 2.23 C-10.34 1.77 -9.56 1.3 -8.75 0.81 C-8.13 0.43 -7.5 0.04 -6.86 -0.36 C-4.25 -1.26 -2.6 -0.81 0 0 Z " fill="#F7F9F8" transform="translate(444,472)"/>
<path d="M0 0 C1.96 0.77 1.96 0.77 2.84 2.2 C3.02 2.82 3.21 3.44 3.4 4.08 C3.64 4.8 3.89 5.51 4.14 6.25 C4.41 7.08 4.68 7.91 4.96 8.77 C7.75 16.98 10.13 22.6 17.96 26.77 C20.86 28.19 23.77 29.53 26.74 30.79 C28.96 31.77 28.96 31.77 29.96 32.77 C30.01 34.44 30.01 36.1 29.96 37.77 C29.02 38.14 28.08 38.52 27.11 38.91 C11.01 45.46 11.01 45.46 6.84 54.57 C5.62 57.63 4.61 60.73 3.68 63.89 C2.96 65.77 2.96 65.77 0.96 67.77 C-1.16 67.89 -1.16 67.89 -3.04 67.77 C-3.23 67.28 -3.42 66.78 -3.61 66.27 C-4.49 64.02 -5.39 61.77 -6.29 59.52 C-6.59 58.74 -6.89 57.96 -7.2 57.16 C-8.93 52.84 -10.5 49.93 -14.04 46.77 C-14.04 46.11 -14.04 45.45 -14.04 44.77 C-14.46 44.64 -14.46 44.64 -16.64 43.96 C-20.06 42.82 -23.21 41.3 -26.41 39.64 C-26.96 39.37 -27.5 39.09 -28.06 38.8 C-29.39 38.13 -30.71 37.45 -32.04 36.77 C-32.04 35.12 -32.04 33.47 -32.04 31.77 C-31.31 31.45 -30.59 31.14 -29.84 30.82 C-18.85 25.95 -12.22 21.97 -7.62 10.33 C-6.94 8.57 -6.3 6.8 -5.68 5.02 C-3.78 -0.43 -3.78 -0.43 0 0 Z " fill="#ADBBC6" transform="translate(659.03515625,278.23046875)"/>
<path d="M0 0 C2.19 1.07 4.11 2.12 6.14 3.43 C6.7 3.78 7.26 4.12 7.84 4.48 C9.65 5.6 11.45 6.74 13.25 7.88 C15.12 9.04 17 10.21 18.88 11.37 C20.13 12.14 21.38 12.92 22.63 13.7 C28.82 17.54 35.12 21.15 41.49 24.69 C42.2 25.09 42.9 25.49 43.63 25.9 C44.24 26.24 44.85 26.57 45.47 26.92 C47.24 28.17 48.08 29.03 49 31 C49.31 33.52 49.31 33.52 49 36 C43.55 42.69 32.65 47.1 25.25 51.44 C23.85 52.27 22.44 53.09 21.04 53.92 C18.31 55.54 15.58 57.14 12.84 58.73 C10.37 60.18 7.94 61.66 5.52 63.19 C4.98 63.53 4.45 63.86 3.89 64.2 C2.47 65.09 1.05 66 -0.36 66.9 C-3.7 68.29 -5.56 68 -9 67 C-11.62 64.58 -12.88 63.14 -13.25 59.56 C-9.8 52.49 -0.46 48.87 6.18 45.17 C10.93 42.5 15.57 39.66 20.2 36.79 C24.78 34 24.78 34 27 34 C27 33.34 27 32.68 27 32 C26.57 31.87 26.57 31.87 24.39 31.22 C20.92 30.06 17.83 28.35 14.68 26.48 C14.1 26.14 13.53 25.8 12.93 25.45 C11.71 24.73 10.5 24.01 9.29 23.29 C7.44 22.19 5.59 21.11 3.74 20.03 C2.56 19.33 1.37 18.62 0.18 17.92 C-0.36 17.6 -0.91 17.28 -1.47 16.95 C-5.2 14.71 -8.08 12.24 -11 9 C-11.64 5.73 -10.48 2.85 -8.88 0 C-5.93 -1.57 -3.11 -0.78 0 0 Z " fill="#F7F9F9" transform="translate(523,472)"/>
<path d="M0 0 C4.18 -0.23 7.95 -0.15 12 1 C19.28 8.82 18.14 21.23 18.1 31.16 C18.1 32.3 18.09 33.44 18.09 34.62 C18.09 37.63 18.08 40.64 18.07 43.65 C18.06 46.74 18.05 49.82 18.05 52.91 C18.04 58.94 18.02 64.97 18 71 C14.7 70.67 11.4 70.34 8 70 C7.67 69.01 7.34 68.02 7 67 C7 68.32 7 69.64 7 71 C4.75 71.98 2.5 72.96 0.25 73.94 C-0.38 74.22 -1.02 74.49 -1.67 74.78 C-8.51 77.74 -8.51 77.74 -11 78 C-12.75 77.06 -12.75 77.06 -14 76 C-13.58 75.53 -13.16 75.06 -12.72 74.57 C-12.45 74.26 -12.45 74.26 -11.06 72.69 C-10.52 72.07 -9.97 71.46 -9.41 70.82 C-6.3 66.81 -6.66 62.1 -6.44 57.25 C-6.39 56.35 -6.35 55.46 -6.3 54.53 C-6.05 48.65 -5.98 42.78 -6.01 36.89 C-6.01 36.54 -6.01 36.54 -6.02 34.79 C-6.04 31.33 -6.07 27.86 -6.12 24.4 C-6.14 23.11 -6.15 21.82 -6.16 20.53 C-6.18 19.39 -6.19 18.25 -6.21 17.08 C-6 13.94 -5.33 11.83 -4 9 C-3.65 8.19 -3.29 7.38 -2.93 6.54 C-2.58 5.77 -2.23 4.99 -1.88 4.19 C-1.7 3.79 -1.7 3.79 -0.8 1.79 C-0.54 1.2 -0.27 0.61 0 0 Z " fill="#64360E" transform="translate(872,517)"/>
<path d="M0 0 C0.66 -0.01 1.32 -0.02 1.99 -0.03 C4.18 -0.05 6.37 -0.03 8.56 -0.02 C10.14 -0.03 11.71 -0.04 13.29 -0.05 C17.56 -0.08 21.83 -0.07 26.1 -0.06 C29.67 -0.06 33.24 -0.06 36.81 -0.07 C45.23 -0.09 53.65 -0.09 62.07 -0.07 C70.75 -0.04 79.43 -0.06 88.11 -0.1 C95.57 -0.13 103.03 -0.14 110.48 -0.13 C114.94 -0.12 119.39 -0.12 123.84 -0.15 C128.03 -0.17 132.21 -0.16 136.4 -0.13 C137.93 -0.12 139.47 -0.13 141 -0.14 C154 -0.26 154 -0.26 158.24 2.88 C162.27 7.98 165.13 13.92 168.21 19.64 C105.84 19.64 43.47 19.64 -20.79 19.64 C-9.47 -0.16 -9.47 -0.16 0 0 Z M0.21 5.64 C-2.1 9.6 -4.41 13.56 -6.79 17.64 C46.34 17.64 99.47 17.64 154.21 17.64 C152.44 13.2 150.65 9.08 147.21 5.64 C145.33 5.52 143.45 5.47 141.56 5.44 C140.96 5.43 140.37 5.42 139.75 5.41 C137.74 5.38 135.73 5.36 133.72 5.34 C132.28 5.32 130.84 5.3 129.41 5.28 C116.27 5.11 103.13 5.01 89.99 4.94 C80.28 4.88 70.57 4.79 60.86 4.64 C54.03 4.54 47.21 4.49 40.38 4.47 C36.3 4.46 32.22 4.43 28.15 4.34 C24.31 4.26 20.47 4.24 16.63 4.27 C15.22 4.26 13.81 4.24 12.41 4.2 C11.75 4.18 11.08 4.16 10.4 4.14 C9.83 4.11 9.25 4.09 8.66 4.07 C5.8 4.24 3.01 5.01 0.21 5.64 Z " fill="#0F182B" transform="translate(406.78660583496094,679.3583526611328)"/>
<path d="M0 0 C2 0.85 2 0.85 3.12 2.85 C3.41 3.7 3.7 4.54 4 5.41 C4.34 6.31 4.67 7.22 5.02 8.15 C5.18 8.59 5.18 8.59 6 10.85 C9.26 19.67 15.15 23.08 23.44 26.97 C23.76 27.11 23.76 27.11 25.37 27.79 C27.46 29.15 28.06 30.58 29 32.85 C25.42 35.39 21.92 37.38 17.94 39.22 C9.75 43.32 7.3 48.79 4.14 57.09 C3.51 58.71 2.76 60.28 2 61.85 C1.5 62.01 1.5 62.01 -1 62.85 C-4.26 60.21 -5.31 56.83 -6.75 53.04 C-9.12 47.24 -11.29 42.93 -17 39.85 C-20.16 38.53 -23.28 37.32 -26.52 36.22 C-29 34.85 -29 34.85 -29.85 32.2 C-29.9 31.42 -29.95 30.65 -30 29.85 C-27.07 28.02 -24.13 26.43 -21 24.97 C-12.95 20.98 -8.78 14.31 -5.88 6.04 C-5.56 5.08 -5.25 4.12 -4.93 3.14 C-3.77 0.29 -3.07 -0.23 0 0 Z " fill="#ADBBC6" transform="translate(512,307.15234375)"/>
<path d="M0 0 C3.47 1.26 4.97 1.91 6.94 5.06 C7.11 11.66 4.91 17.8 2.66 23.91 C2.33 24.83 2 25.75 1.66 26.69 C0.59 29.65 -0.48 32.61 -1.56 35.56 C-2.3 37.59 -3.03 39.62 -3.76 41.65 C-5.2 45.64 -6.64 49.63 -8.09 53.62 C-9.77 58.24 -11.42 62.87 -13.05 67.51 C-13.47 68.69 -13.89 69.87 -14.31 71.05 C-15.04 73.13 -15.77 75.2 -16.5 77.28 C-16.82 78.17 -17.13 79.06 -17.46 79.98 C-17.73 80.73 -17.99 81.48 -18.26 82.25 C-19.06 84.06 -19.06 84.06 -21.06 86.06 C-25 86.8 -28.16 86.59 -31.62 84.56 C-33.69 80.97 -32.87 77.96 -32.06 74.06 C-31.01 70.33 -29.76 66.67 -28.49 63.01 C-28.13 61.96 -27.77 60.9 -27.4 59.82 C-26.64 57.59 -25.88 55.37 -25.11 53.14 C-23.95 49.8 -22.81 46.46 -21.67 43.12 C-19.84 37.76 -17.98 32.41 -16.11 27.07 C-15.43 25.1 -14.75 23.14 -14.07 21.17 C-13.17 18.53 -12.25 15.9 -11.32 13.27 C-11.06 12.5 -10.8 11.74 -10.54 10.95 C-8.65 5.67 -6.3 0.13 0 0 Z " fill="#F7F9F9" transform="translate(491.0625,458.9375)"/>
<path d="M0 0 C1.91 0.08 1.91 0.08 4 1 C5.34 3.51 5.34 3.51 6.5 6.69 C10.11 16 13.92 20.67 23.07 24.98 C24.7 25.68 26.35 26.35 28 27 C27.86 29.31 27.86 29.31 27 32 C24.45 33.62 24.45 33.62 21.25 35 C13.42 38.63 10.57 41.13 7.5 49.25 C7.14 50.31 6.78 51.36 6.41 52.45 C5 55 5 55 2.34 55.86 C1.57 55.91 0.8 55.95 0 56 C-0.1 55.77 -0.1 55.77 -0.59 54.61 C-7.45 38.85 -7.45 38.85 -14.75 35.82 C-15.49 35.55 -16.23 35.28 -17 35 C-18.53 34.24 -20.05 33.47 -21.56 32.69 C-22.71 32.12 -23.85 31.56 -25 31 C-24.92 29.24 -24.92 29.24 -24 27 C-21.9 25.45 -19.58 24.36 -17.25 23.19 C-7.98 18.17 -5.13 13.27 -1.8 3.26 C-1 1 -1 1 0 0 Z " fill="#ACBAC5" transform="translate(210,561)"/>
<path d="M0 0 C0.33 0.99 0.66 1.98 1 3 C1.66 3 2.32 3 3 3 C3.07 14.04 3.12 25.08 3.16 36.12 C3.17 41.25 3.19 46.38 3.23 51.5 C3.26 56.46 3.28 61.41 3.28 66.36 C3.29 68.25 3.3 70.13 3.32 72.02 C3.51 95.41 3.51 95.41 -3.25 102.94 C-10.48 109.41 -18.6 110.21 -28 110 C-28.33 109.34 -28.66 108.68 -29 108 C-27.88 107.91 -26.76 107.83 -25.61 107.74 C-24.13 107.6 -22.66 107.46 -21.19 107.31 C-20.82 107.29 -20.82 107.29 -18.95 107.15 C-13.5 106.58 -13.5 106.58 -11.05 103.73 C-8.9 98.14 -8.86 92.9 -8.89 86.99 C-8.89 86.09 -8.89 85.19 -8.89 84.27 C-8.89 81.31 -8.89 78.35 -8.9 75.39 C-8.9 73.33 -8.91 71.28 -8.91 69.22 C-8.91 63.82 -8.92 58.41 -8.93 53.01 C-8.94 47.49 -8.95 41.98 -8.95 36.46 C-8.96 25.64 -8.98 14.82 -9 4 C-6.03 2.68 -3.06 1.36 0 0 Z " fill="#A86511" transform="translate(898,592)"/>
<path d="M0 0 C0.81 -0.01 1.63 -0.01 2.47 -0.02 C5.15 -0.04 7.84 -0.04 10.52 -0.03 C12.39 -0.03 14.26 -0.04 16.13 -0.05 C20.04 -0.05 23.96 -0.05 27.87 -0.04 C32.89 -0.03 37.9 -0.05 42.92 -0.08 C46.78 -0.1 50.63 -0.1 54.49 -0.09 C56.34 -0.09 58.19 -0.1 60.04 -0.11 C62.63 -0.13 65.21 -0.11 67.8 -0.1 C68.56 -0.11 69.33 -0.12 70.11 -0.13 C73.8 -0.08 75.39 0.01 78.39 2.32 C79.9 4.4 79.9 4.4 80.11 6.29 C79.01 11.29 79.01 11.29 77.9 12.4 C75.17 12.51 72.47 12.55 69.74 12.55 C68.88 12.55 68.03 12.56 67.15 12.56 C64.3 12.57 61.46 12.57 58.62 12.57 C56.65 12.58 54.69 12.58 52.72 12.58 C48.59 12.59 44.46 12.59 40.34 12.59 C35.03 12.59 29.73 12.6 24.43 12.62 C20.37 12.63 16.3 12.63 12.24 12.63 C10.29 12.63 8.33 12.64 6.38 12.65 C3.65 12.66 0.92 12.65 -1.81 12.65 C-2.22 12.65 -2.22 12.65 -4.28 12.66 C-5.02 12.66 -5.76 12.66 -6.53 12.65 C-6.85 12.65 -6.85 12.65 -8.48 12.65 C-10.1 12.4 -10.1 12.4 -12.1 10.4 C-12.64 5.46 -12.64 5.46 -12.1 3.4 C-8.51 -0.34 -4.86 -0.03 0 0 Z " fill="#8AB447" transform="translate(398.1015625,577.595947265625)"/>
<path d="M0 0 C3.51 1.1 6.72 2.23 9.88 4.12 C10.47 4.48 11.07 4.83 11.68 5.2 C11.9 5.33 11.9 5.33 13 6 C12.99 6.81 12.99 7.63 12.98 8.47 C12.92 16.15 12.87 23.83 12.84 31.51 C12.83 35.45 12.81 39.4 12.77 43.35 C12.74 47.16 12.72 50.97 12.72 54.79 C12.71 56.24 12.7 57.69 12.68 59.14 C12.66 61.18 12.66 63.22 12.66 65.26 C12.65 65.86 12.64 66.45 12.63 67.07 C12.66 72.12 14.17 75.78 17.39 79.68 C17.82 80.07 18.25 80.47 18.69 80.88 C19.45 81.58 20.21 82.28 21 83 C17.7 83 14.4 83 11 83 C11.33 83.99 11.66 84.98 12 86 C10.16 86.2 10.16 86.2 8 86 C2.13 80.37 0.17 72.57 -0.12 64.7 C-0.12 63.49 -0.12 62.28 -0.11 61.08 C-0.11 60.41 -0.11 59.75 -0.11 59.06 C-0.11 56.89 -0.11 54.71 -0.1 52.54 C-0.1 51.02 -0.09 49.51 -0.09 47.99 C-0.09 44.02 -0.08 40.04 -0.07 36.07 C-0.06 32 -0.05 27.94 -0.05 23.88 C-0.04 15.92 -0.02 7.96 0 0 Z " fill="#FEEF93" transform="translate(635,596)"/>
<path d="M0 0 C1.88 0.12 1.88 0.12 4 1 C7.66 7.77 6.76 16.96 4.94 24.19 C3.08 29.66 -0.24 33.69 -4 38 C-4.83 39.02 -5.67 40.04 -6.5 41.06 C-6.9 41.53 -7.3 41.99 -7.71 42.47 C-8.66 43.6 -9.56 44.76 -10.44 45.93 C-15.44 52.31 -21.81 57 -29.95 58.31 C-39.39 59.22 -48.21 58.22 -56.05 52.5 C-58.31 50.62 -60.39 48.64 -62.42 46.52 C-64.26 44.75 -66.25 43.31 -68.31 41.81 C-76.18 35.68 -80.73 29.05 -82 19 C-82.04 14.3 -81.56 9.66 -81 5 C-80.01 4.67 -79.02 4.34 -78 4 C-77.81 4.9 -77.61 5.81 -77.41 6.74 C-77.15 7.93 -76.89 9.12 -76.62 10.31 C-76.5 10.91 -76.37 11.5 -76.24 12.12 C-75.56 15.18 -74.79 17.45 -73 20 C-72.73 21.39 -72.5 22.79 -72.31 24.19 C-71.16 29.77 -68.23 33.29 -64 37 C-63.01 37.5 -62.02 37.99 -61 38.5 C-57.28 40.36 -55.48 42.78 -53 46.06 C-48.25 50.66 -42.59 51.56 -36.19 51.5 C-35.49 51.5 -34.79 51.49 -34.08 51.49 C-26.59 51.24 -20.95 48.88 -15.56 43.62 C-14.32 41.54 -13.52 39.8 -12.69 37.56 C-11.21 33.78 -8.85 31.9 -5.62 29.55 C-0.9 25.02 -1.61 18.4 -1.44 12.31 C-1.38 10.41 -1.31 8.51 -1.25 6.61 C-1.23 6.19 -1.23 6.19 -1.17 4.08 C-1 2 -1 2 0 0 Z " fill="#C1CCD4" transform="translate(378,427)"/>
<path d="M0 0 C1.94 0.11 1.94 0.11 4 1 C5.12 3.33 5.12 3.33 6 6.25 C9.24 15.79 14.21 18.59 23 23 C23 24.32 23 25.64 23 27 C22.14 27.35 21.29 27.71 20.4 28.07 C10.85 32.39 6.97 37.41 3 47 C1.17 46.8 1.17 46.8 -1 46 C-2.45 43.82 -2.45 43.82 -3.69 41.12 C-4.1 40.24 -4.52 39.36 -4.95 38.45 C-6 36 -6 36 -7 33 C-9.06 32.06 -9.06 32.06 -12 31 C-13.43 30.4 -14.84 29.77 -16.25 29.12 C-16.94 28.82 -17.62 28.51 -18.33 28.2 C-20 27 -20 27 -20.73 24.87 C-20.82 24.25 -20.91 23.63 -21 23 C-20.25 22.62 -19.5 22.25 -18.73 21.86 C-9.47 17.05 -6.16 12.84 -2.05 3.33 C-1 1 -1 1 0 0 Z " fill="#F4C72D" transform="translate(712,349)"/>
<path d="M0 0 C0.61 -0 1.21 -0.01 1.84 -0.02 C3.84 -0.03 5.84 -0.04 7.83 -0.04 C8.52 -0.04 9.21 -0.05 9.92 -0.05 C13.56 -0.07 17.2 -0.07 20.85 -0.08 C24.58 -0.08 28.32 -0.11 32.05 -0.14 C34.95 -0.16 37.85 -0.16 40.74 -0.16 C42.12 -0.17 43.49 -0.17 44.87 -0.19 C53.81 -0.27 62.56 0.07 70.73 4.16 C70.73 4.82 70.73 5.48 70.73 6.16 C67.4 7.27 64.48 7.31 61.02 7.32 C60.34 7.32 59.66 7.33 58.96 7.33 C57.49 7.34 56.01 7.35 54.54 7.36 C52.2 7.37 49.86 7.39 47.53 7.41 C40.88 7.47 34.23 7.53 27.58 7.56 C23.51 7.58 19.44 7.62 15.37 7.66 C13.83 7.68 12.29 7.69 10.74 7.69 C-8.41 7.73 -8.41 7.73 -15.77 13.79 C-20.27 19.49 -19.25 28.25 -19.27 35.16 C-22.37 36.71 -24.89 35.72 -28.27 35.16 C-28.97 15.1 -28.97 15.1 -22.96 7.66 C-16.39 1.83 -8.54 0.05 0 0 Z " fill="#FBEE93" transform="translate(744.26806640625,466.8388671875)"/>
<path d="M0 0 C1.28 0.4 2.55 0.82 3.81 1.25 C4.52 1.48 5.23 1.71 5.96 1.95 C8.53 3.27 9.48 4.54 11 7 C11.36 9.46 11.36 9.46 11.34 12.23 C11.34 13.27 11.34 14.31 11.34 15.38 C11.32 16.5 11.31 17.61 11.29 18.77 C11.29 19.91 11.28 21.06 11.28 22.25 C11.27 25.29 11.24 28.34 11.21 31.38 C11.18 34.49 11.16 37.6 11.15 40.71 C11.11 46.81 11.06 52.9 11 59 C8.75 59.98 6.5 60.96 4.25 61.94 C3.93 62.08 3.93 62.08 2.33 62.78 C-4.11 65.56 -4.11 65.56 -7 66 C-8.75 65.06 -8.75 65.06 -10 64 C-9.58 63.53 -9.16 63.06 -8.72 62.57 C-8.17 61.95 -7.63 61.33 -7.06 60.69 C-6.52 60.07 -5.97 59.46 -5.41 58.82 C-2.3 54.81 -2.66 50.1 -2.44 45.25 C-2.39 44.36 -2.35 43.46 -2.3 42.54 C-2.05 36.62 -1.98 30.71 -2.01 24.79 C-2.01 24.08 -2.01 23.38 -2.02 22.66 C-2.04 19.15 -2.07 15.64 -2.12 12.14 C-2.14 10.84 -2.15 9.54 -2.16 8.24 C-2.18 7.08 -2.19 5.93 -2.21 4.74 C-2 2 -2 2 0 0 Z " fill="#A86611" transform="translate(868,529)"/>
<path d="M0 0 C2.71 1.01 3.79 1.55 5.05 4.21 C5.33 5.07 5.6 5.93 5.88 6.81 C8.71 14.48 14.02 17.3 21 21 C20.79 22.88 20.79 22.88 20 25 C17.96 26.03 17.96 26.03 15.38 26.94 C8.27 30.14 6 36.21 3 43 C1.16 42.86 1.16 42.86 -1 42 C-2.32 39.49 -2.32 39.49 -3.56 36.31 C-6.61 29.27 -10.9 26.88 -18 24 C-17.75 22.11 -17.75 22.11 -17 20 C-15.21 19.04 -15.21 19.04 -12.94 18.19 C-5.78 14.61 -3.2 6.93 0 0 Z " fill="#F4C72E" transform="translate(591,328)"/>
<path d="M0 0 C1.32 0 2.64 0 4 0 C4.3 0.82 4.61 1.64 4.92 2.48 C5.34 3.57 5.76 4.66 6.19 5.75 C6.39 6.28 6.39 6.28 7.42 8.98 C9.65 13.25 12.79 15.69 17.19 17.56 C19.77 18.88 20.79 19.45 22 22 C21.34 22.39 20.68 22.78 20 23.19 C19.55 23.47 19.09 23.75 18.62 24.04 C17 25 17 25 15.06 25.93 C8.49 29.35 6.48 34.2 4 41 C2.68 41 1.36 41 0 41 C-0.31 40.2 -0.61 39.41 -0.93 38.59 C-4.65 29.96 -8.08 26.62 -17 23 C-17 22.01 -17 21.02 -17 20 C-14.95 18.68 -14.95 18.68 -12.25 17.31 C-6.95 14.3 -5.09 11.59 -3 6 C-2.43 4.83 -1.85 3.66 -1.25 2.5 C-0.84 1.68 -0.43 0.85 0 0 Z " fill="#F5C82D" transform="translate(452,255)"/>
<path d="M0 0 C1.88 0.2 1.88 0.2 4 1 C5.05 3.11 5.05 3.11 5.88 5.75 C8.7 13.47 13.98 16.28 21 20 C21 20.99 21 21.98 21 23 C20.29 23.28 19.57 23.56 18.84 23.86 C9.84 27.98 6.84 33.17 3 42 C2.01 42 1.02 42 0 42 C-0.3 41.18 -0.61 40.36 -0.92 39.52 C-1.34 38.43 -1.76 37.34 -2.19 36.25 C-2.59 35.18 -3 34.12 -3.42 33.02 C-5.78 28.51 -9.13 26.09 -13.81 24.25 C-14.86 23.84 -15.92 23.43 -17 23 C-17 21.68 -17 20.36 -17 19 C-16.32 18.72 -15.65 18.44 -14.95 18.15 C-8.82 15.39 -5.51 13.27 -3 7 C-2.7 6.34 -2.41 5.68 -2.11 5 C-1.37 3.34 -0.68 1.67 0 0 Z " fill="#ADBBC5" transform="translate(210,437)"/>
<path d="M0 0 C0.78 -0.02 1.57 -0.03 2.38 -0.05 C5.94 -0.09 9.51 -0.13 13.07 -0.16 C14.95 -0.17 16.83 -0.2 18.71 -0.24 C21.42 -0.29 24.14 -0.32 26.86 -0.33 C27.69 -0.35 28.53 -0.38 29.39 -0.4 C33.38 -0.38 36.02 -0.27 39.02 2.53 C40.95 5.19 40.95 5.19 40.95 8.38 C39.89 11.37 39.66 11.86 36.95 13.19 C34.94 13.45 34.94 13.45 32.62 13.47 C31.75 13.48 30.88 13.49 29.98 13.5 C29.04 13.5 28.11 13.49 27.14 13.49 C26.18 13.5 25.21 13.5 24.22 13.51 C22.17 13.51 20.13 13.51 18.09 13.51 C14.97 13.51 11.84 13.53 8.71 13.55 C6.73 13.56 4.75 13.56 2.77 13.56 C2.3 13.56 2.3 13.56 -0.08 13.58 C-0.95 13.58 -1.82 13.57 -2.71 13.57 C-3.48 13.57 -4.25 13.57 -5.04 13.57 C-7.61 13.09 -8.49 12.26 -10.05 10.19 C-10.35 7.28 -10.43 5.11 -9.3 2.38 C-6.8 0.01 -3.3 0.06 0 0 Z " fill="#6F849C" transform="translate(335.046630859375,553.80712890625)"/>
<path d="M0 0 C3.22 1.54 4.45 2.71 5.84 5.99 C7.25 10.85 7.2 14.57 5.12 19.21 C2.62 23.2 -0.58 25.53 -5 27 C-9.94 27.59 -14.47 27.98 -18.56 24.81 C-21.02 22.32 -22 20.59 -22 17 C-21.53 12.52 -20.9 8.47 -17.69 5.12 C-16.8 4.42 -15.91 3.72 -15 3 C-14.28 2.4 -13.56 1.8 -12.81 1.19 C-8.54 -0.62 -4.57 -0.65 0 0 Z " fill="#FAFBF7" transform="translate(319,319)"/>
<path d="M0 0 C0.43 -0.01 0.43 -0.01 2.63 -0.04 C3.56 -0.04 4.5 -0.03 5.46 -0.03 C6.42 -0.03 7.39 -0.04 8.38 -0.05 C10.42 -0.05 12.45 -0.05 14.49 -0.04 C17.61 -0.03 20.72 -0.06 23.84 -0.09 C25.82 -0.1 27.8 -0.1 29.77 -0.09 C30.24 -0.1 30.24 -0.1 32.6 -0.13 C39.02 -0.06 39.02 -0.06 42.31 2.24 C43.68 4.4 43.68 4.4 43.56 7.53 C42.68 10.4 42.68 10.4 40.68 12.4 C38.71 12.66 38.71 12.66 36.27 12.68 C35.35 12.69 34.44 12.7 33.5 12.71 C33 12.71 33 12.71 30.5 12.7 C29.48 12.71 28.47 12.71 27.43 12.72 C25.28 12.72 23.13 12.72 20.99 12.72 C17.7 12.72 14.41 12.74 11.11 12.77 C9.03 12.77 6.95 12.77 4.87 12.77 C3.88 12.78 2.89 12.79 1.87 12.8 C0.96 12.79 0.04 12.78 -0.9 12.78 C-1.3 12.78 -1.3 12.78 -3.34 12.78 C-5.32 12.4 -5.32 12.4 -6.57 11.07 C-7.76 8.42 -7.61 6.26 -7.32 3.4 C-5.13 0.5 -3.57 0.03 0 0 Z " fill="#6F849C" transform="translate(332.316162109375,577.595947265625)"/>
<path d="M0 0 C1.38 1.31 1.38 1.31 2 3 C1.94 5 1.94 5 1 7 C-3.41 10.43 -7.87 10.79 -13.25 11.39 C-14.13 11.49 -15.02 11.6 -15.94 11.71 C-17.81 11.93 -19.69 12.15 -21.56 12.36 C-24.43 12.69 -27.28 13.03 -30.14 13.37 C-31.97 13.58 -33.79 13.8 -35.62 14.01 C-36.47 14.11 -37.32 14.21 -38.2 14.31 C-50.03 15.65 -50.03 15.65 -53.44 13.38 C-55 11 -55 11 -54.75 7.75 C-54.5 6.84 -54.25 5.94 -54 5 C-48.17 3.36 -42.45 2.47 -36.43 1.89 C-35.54 1.81 -34.65 1.72 -33.74 1.63 C-31.88 1.44 -30.02 1.26 -28.15 1.09 C-25.31 0.81 -22.47 0.52 -19.62 0.24 C-17.81 0.06 -15.99 -0.12 -14.18 -0.29 C-13.33 -0.38 -12.48 -0.47 -11.61 -0.55 C-7.55 -0.93 -3.96 -1.23 0 0 Z " fill="#D5DDE1" transform="translate(365,426)"/>
<path d="M0 0 C0.6 -0 1.19 -0 1.8 -0 C3.76 0 5.72 0.03 7.68 0.06 C9.04 0.07 10.4 0.08 11.77 0.08 C15.34 0.1 18.92 0.14 22.5 0.18 C26.15 0.22 29.8 0.24 33.46 0.26 C40.62 0.3 47.78 0.37 54.95 0.45 C53.57 3.42 52.25 6.11 49.95 8.45 C47.23 8.94 47.23 8.94 43.91 8.91 C43.31 8.91 42.7 8.91 42.08 8.91 C40.08 8.91 38.09 8.88 36.09 8.84 C34.71 8.84 33.32 8.83 31.93 8.83 C28.29 8.81 24.64 8.77 21 8.73 C17.28 8.69 13.56 8.67 9.84 8.65 C2.54 8.61 -4.76 8.54 -12.05 8.45 C-9.46 2.39 -6.67 -0.06 0 0 Z " fill="#3D5575" transform="translate(284.0537109375,662.5458984375)"/>
<path d="M0 0 C0.6 2.33 0.6 2.33 1 5 C-0.63 7.73 -1.28 8.55 -4 10 C-8.4 11.07 -12.82 11.45 -17.31 11.81 C-18.58 11.93 -19.84 12.05 -21.11 12.16 C-27.93 12.78 -34.77 13.28 -41.62 13.38 C-42.26 13.39 -42.9 13.4 -43.56 13.42 C-47.62 13.37 -47.62 13.37 -49.39 11.64 C-50.23 9.39 -50.13 7.38 -50 5 C-42.94 3.17 -35.83 2.29 -28.59 1.57 C-26.7 1.38 -24.81 1.17 -22.92 0.97 C-15.25 0.17 -7.73 -0.18 0 0 Z " fill="#DFE5E8" transform="translate(366,442)"/>
<path d="M0 0 C1.04 0 2.09 0.01 3.16 0.01 C3.74 0.01 4.31 0.01 4.91 0.01 C6.81 0.01 8.72 0.03 10.62 0.05 C11.94 0.05 13.26 0.05 14.58 0.05 C18.06 0.06 21.53 0.08 25.01 0.1 C28.55 0.12 32.1 0.13 35.64 0.14 C42.6 0.16 49.56 0.2 56.52 0.24 C55.45 3.16 54.74 5.02 52.52 7.24 C50 7.48 50 7.48 46.78 7.47 C46.2 7.47 45.61 7.47 45.01 7.47 C43.07 7.47 41.14 7.45 39.2 7.44 C37.86 7.43 36.51 7.43 35.17 7.43 C31.64 7.42 28.1 7.4 24.57 7.38 C20.96 7.36 17.36 7.35 13.75 7.34 C6.67 7.32 -0.4 7.28 -7.48 7.24 C-3.48 0.34 -3.48 0.34 0 0 Z " fill="#2D4060" transform="translate(291.4803771972656,649.7594909667969)"/>
<path d="M0 0 C2.44 0.56 2.44 0.56 4.19 2.38 C7.06 7.41 6.66 12.31 6.69 17.94 C6.71 18.88 6.73 19.83 6.75 20.8 C6.78 25.87 6.78 29.46 3.44 33.56 C3.27 33.73 3.27 33.73 2.44 34.56 C-0.35 34.56 -2.04 34.56 -4.56 33.56 C-8.36 27.93 -7.92 22.15 -7.56 15.56 C-7.53 14.65 -7.5 13.74 -7.47 12.81 C-7.04 5.64 -7.04 5.64 -4.81 2.44 C-2.56 0.56 -2.56 0.56 0 0 Z " fill="#F3C62E" transform="translate(329.5625,240.4375)"/>
<path d="M0 0 C6.16 4.62 12.69 14.66 14.54 22.22 C14.66 24.84 14.19 26.68 12.88 28.94 C10.01 30.56 8.23 30.52 5 30 C0.61 26.28 -2.04 22 -4.81 17 C-5.22 16.3 -5.63 15.6 -6.04 14.88 C-9.74 8.31 -9.74 8.31 -9 4 C-6.3 0.3 -4.51 -0.54 0 0 Z " fill="#F3C62E" transform="translate(273,257)"/>
<path d="M0 0 C1.94 1.06 1.94 1.06 3 3 C2.63 8.74 0.85 13.1 -1.75 18.19 C-2.09 18.89 -2.42 19.58 -2.77 20.3 C-4.92 24.59 -6.86 27.49 -11 30 C-14.06 29.46 -16.03 28.8 -18.44 26.81 C-19.77 22.51 -18.18 18.04 -16.29 14.14 C-15.6 12.84 -14.9 11.54 -14.19 10.25 C-13.84 9.59 -13.5 8.93 -13.15 8.25 C-9.96 2.36 -7.2 -0.92 0 0 Z " fill="#F3C62E" transform="translate(388,253)"/>
<path d="M0 0 C2.06 1.12 2.06 1.12 3 3 C3.19 5.81 3.19 5.81 2 9 C-3.41 14.69 -13.38 20.67 -21.25 21.23 C-24 21 -24 21 -25.88 19.88 C-27.58 17.03 -27.52 15.26 -27 12 C-23.54 7.96 -19.93 5.51 -15.19 3.19 C-14.57 2.88 -13.95 2.58 -13.32 2.27 C-8.66 0.08 -5.18 -0.98 0 0 Z " fill="#F2C32C" transform="translate(425,294)"/>
<path d="M0 0 C5 0.13 8.51 2.15 12.71 4.71 C13.41 5.11 14.11 5.52 14.83 5.93 C18.06 7.82 20.91 9.56 23.39 12.39 C23.54 14.15 23.54 14.15 23.21 15.96 C23.11 16.56 23.01 17.16 22.91 17.77 C22.39 19.39 22.39 19.39 20.39 21.39 C14.87 22.14 11.09 20.18 6.33 17.71 C5.64 17.37 4.94 17.03 4.23 16.68 C-0.15 14.45 -3.47 12.2 -6.61 8.39 C-6.51 3.33 -5.4 0.13 0 0 Z " fill="#F1C42D" transform="translate(233.60546875,293.60546875)"/>
<path d="M0 0 C0.6 0 1.2 0 1.82 0.01 C3.66 0.01 5.49 -0.01 7.32 -0.04 C7.9 -0.04 7.9 -0.04 10.82 -0.04 C11.88 -0.04 12.94 -0.05 14.03 -0.05 C16.73 0.32 16.73 0.32 18.58 1.74 C20.63 4.57 20.04 6.91 19.73 10.32 C16.19 13.86 10.58 12.73 5.78 12.75 C3.8 12.76 1.83 12.81 -0.15 12.86 C-1.41 12.87 -2.67 12.88 -3.92 12.88 C-5.07 12.89 -6.21 12.91 -7.39 12.92 C-10.27 12.32 -10.27 12.32 -12.21 9.96 C-13.27 7.32 -13.27 7.32 -12.58 4.63 C-9.43 -0.93 -5.91 0.04 0 0 Z " fill="#FBCF26" transform="translate(503.271484375,577.677734375)"/>
<path d="M0 0 C0.45 -0.01 0.45 -0.01 2.75 -0.07 C9.37 -0.1 9.37 -0.1 12.67 2.17 C14.83 5.59 14.51 7.39 14.06 11.38 C10.56 14.88 5.37 13.74 0.62 13.75 C-0.44 13.77 -1.5 13.8 -2.6 13.82 C-3.61 13.83 -4.63 13.83 -5.68 13.84 C-6.62 13.84 -7.55 13.85 -8.52 13.86 C-10.94 13.38 -10.94 13.38 -12.75 11.46 C-14.7 8.03 -13.91 6.13 -12.94 2.38 C-9.46 -0.88 -4.46 0.01 0 0 Z " fill="#CCD5DA" transform="translate(407.9375,553.625)"/>
<path d="M0 0 C1.02 0.16 2.05 0.32 3.11 0.48 C5.95 1.29 7.09 1.87 8.81 4.25 C9.25 7.25 9.25 7.25 8.81 10.25 C4.08 14.72 -1.74 14.28 -7.92 14.22 C-11.86 13.98 -14.5 13.68 -17.88 11.56 C-19.19 9.25 -19.19 9.25 -19.31 6.19 C-18.19 3.25 -18.19 3.25 -15.5 1.44 C-10.42 -0.82 -5.41 -0.9 0 0 Z " fill="#F2C32C" transform="translate(237.1875,343.75)"/>
<path d="M0 0 C3.49 0 5.21 0.31 7.89 2.64 C13.98 9.34 15.32 15.01 15.12 23.88 C15.12 24.66 15.11 25.44 15.1 26.25 C15.07 28.17 15.04 30.08 15 32 C12.03 32 9.06 32 6 32 C5.99 31.33 5.97 30.67 5.96 29.98 C5.88 26.95 5.78 23.91 5.69 20.88 C5.66 19.83 5.64 18.78 5.62 17.7 C5.42 12.06 5.22 7.73 2 3 C1.34 2.67 0.68 2.34 0 2 C0 1.34 0 0.68 0 0 Z " fill="#985B11" transform="translate(815,471)"/>
<path d="M0 0 C-0.84 5.09 -2.55 8.22 -6.81 11.31 C-12.81 13.2 -16.91 11.93 -22.3 9.17 C-24.13 7.91 -25.02 6.98 -26 5 C-26 4.01 -26 3.02 -26 2 C-17.2 0.39 -8.94 -0.26 0 0 Z " fill="#CDD7DC" transform="translate(356,459)"/>
<path d="M0 0 C4.4 -0.02 8.79 -0.04 13.19 -0.05 C14.69 -0.06 16.18 -0.07 17.68 -0.08 C19.83 -0.09 21.97 -0.09 24.12 -0.1 C24.46 -0.1 24.46 -0.1 26.16 -0.11 C27.77 -0.11 29.39 -0.06 31 0 C32 1 32 1 32.06 3.56 C32.04 4.37 32.02 5.17 32 6 C29.23 7.39 26.57 7.16 23.53 7.17 C23.21 7.17 23.21 7.17 21.6 7.18 C20.26 7.18 18.91 7.19 17.57 7.19 C15.51 7.19 13.45 7.21 11.39 7.22 C10.08 7.23 8.77 7.23 7.47 7.23 C6.85 7.24 6.23 7.24 5.6 7.25 C1.23 7.23 1.23 7.23 -1 5 C-0.62 2.38 -0.62 2.38 0 0 Z " fill="#18263B" transform="translate(685,727)"/>
<path d="M0 0 C1.31 0 2.61 0.01 3.92 0.02 C4.26 0.02 4.26 0.02 6 0.02 C8.2 0.03 10.4 0.04 12.6 0.05 C14.09 0.06 15.58 0.06 17.07 0.06 C20.73 0.08 24.38 0.09 28.04 0.11 C28.67 2.49 28.67 2.49 29.04 5.11 C26.69 7.47 25.65 7.35 22.44 7.37 C21.83 7.36 21.21 7.35 20.57 7.34 C19.94 7.34 19.3 7.34 18.64 7.34 C17.3 7.34 15.95 7.33 14.61 7.32 C12.55 7.3 10.49 7.3 8.43 7.3 C7.12 7.29 5.82 7.29 4.51 7.28 C3.89 7.28 3.27 7.28 2.64 7.28 C-1.73 7.23 -1.73 7.23 -3.96 6.11 C-4 4.45 -4 2.78 -3.96 1.11 C-2.96 0.11 -2.96 0.11 0 0 Z " fill="#19273C" transform="translate(255.959228515625,726.886474609375)"/>
<path d="M0 0 C0.54 0.01 0.54 0.01 3.26 0.03 C3.85 0.03 4.45 0.03 5.06 0.03 C7.02 0.03 8.98 0.07 10.94 0.11 C12.3 0.12 13.66 0.13 15.02 0.13 C18.6 0.15 22.18 0.2 25.76 0.26 C29.41 0.31 33.06 0.33 36.71 0.36 C43.88 0.41 51.04 0.5 58.2 0.6 C56.45 4.48 56.45 4.48 54.2 5.6 C54.2 4.94 54.2 4.28 54.2 3.6 C46.84 3.55 39.48 3.52 32.11 3.5 C28.7 3.49 25.28 3.47 21.86 3.45 C18.56 3.43 15.26 3.42 11.96 3.41 C10.7 3.41 9.44 3.4 8.18 3.39 C6.42 3.38 4.65 3.37 2.89 3.37 C1.89 3.37 0.88 3.37 -0.15 3.36 C-2.85 3.61 -4.49 4.22 -6.8 5.6 C-3.62 0.78 -3.62 0.78 0 0 Z M-7.8 5.6 C-7.47 6.26 -7.14 6.92 -6.8 7.6 C0.86 7.49 8.52 7.38 16.18 7.26 C19.73 7.21 23.29 7.15 26.84 7.1 C30.27 7.06 33.7 7 37.13 6.95 C38.44 6.93 39.75 6.91 41.07 6.89 C42.9 6.87 44.73 6.84 46.56 6.81 C47.6 6.79 48.65 6.78 49.72 6.76 C52.2 6.6 52.2 6.6 54.2 5.6 C53.87 6.59 53.54 7.58 53.2 8.6 C32.74 8.6 12.28 8.6 -8.8 8.6 C-8.47 7.61 -8.14 6.62 -7.8 5.6 Z " fill="#172646" transform="translate(280.79681396484375,662.3987274169922)"/>
<path d="M0 0 C1.62 2.19 1.62 2.19 1.62 4.75 C0.41 7.71 -0.59 8.64 -3.38 10.19 C-6.47 11.22 -7.97 11.31 -11.12 10.38 C-13.38 9.19 -13.38 9.19 -14.38 7.19 C-14.83 0.88 -14.83 0.88 -13.12 -1.69 C-8.07 -4.94 -4.59 -3.5 0 0 Z " fill="#FAFBF3" transform="translate(303.375,351.8125)"/>
<path d="M0 0 C2.44 1.56 2.44 1.56 4 4 C4.22 7.14 3.84 9.93 1.88 12.44 C-1.11 13.33 -3.92 13.46 -7 13 C-8.94 11.88 -8.94 11.88 -10 10 C-10.54 6.37 -10.46 4.68 -8.38 1.62 C-5.29 -0.49 -3.67 -0.61 0 0 Z " fill="#ADBAC2" transform="translate(449,357)"/>
<path d="M0 0 C1.98 0 3.96 0 6 0 C6.99 8.25 7.98 16.5 9 25 C7.02 25 5.04 25 3 25 C0.65 16.79 0.39 8.47 0 0 Z " fill="#FBD425" transform="translate(333,396)"/>
<path d="M0 0 C0.99 0.33 1.98 0.66 3 1 C2.67 24.1 2.34 47.2 2 71 C-0.29 67.56 -0.27 65.36 -0.23 61.42 C-0.23 61.09 -0.23 61.09 -0.23 59.41 C-0.23 57.21 -0.21 55.02 -0.2 52.83 C-0.19 51.31 -0.19 49.79 -0.19 48.27 C-0.18 44.27 -0.16 40.27 -0.14 36.27 C-0.12 32.19 -0.11 28.11 -0.1 24.03 C-0.08 16.02 -0.04 8.01 0 0 Z " fill="#E6E79A" transform="translate(635,596)"/>
<path d="M0 0 C2.5 0.38 2.5 0.38 3.67 1.66 C5.21 4.83 4.29 8.05 3.5 11.38 C1.77 15.07 -0.1 17.14 -3.5 19.38 C-4.32 15.79 -4.66 12.43 -4.69 8.75 C-4.7 7.81 -4.72 6.87 -4.73 5.9 C-4.39 2.16 -3.82 0.57 0 0 Z " fill="#F9D126" transform="translate(348.5,366.625)"/>
<path d="M0 0 C2 2 2 2 2.31 4.94 C2 8 2 8 0.75 9.81 C-1.26 11.18 -2.57 11.78 -5 12 C-7.19 11.5 -7.19 11.5 -9 10 C-9.85 7.65 -10.16 5.49 -10 3 C-7.19 -1.02 -4.53 -1.25 0 0 Z " fill="#AEBAC0" transform="translate(591,255)"/>
<path d="M0 0 C2.31 -0.25 2.31 -0.25 5 0 C8.47 3.09 9.24 7.58 10 12 C10.12 15 10.12 15 10 17 C5.06 14.98 2.27 12.91 0 8 C-1.33 2.67 -1.33 2.67 0 0 Z " fill="#F7CF26" transform="translate(315,372)"/>
<path d="M0 0 C0 3 0 3 -1.5 4.69 C-2 5.12 -2.49 5.55 -3 6 C-3.66 5.67 -4.32 5.34 -5 5 C-3.35 3.35 -1.7 1.7 0 0 Z M-6 6 C-6 6.99 -6 7.98 -6 9 C-6.66 8.67 -7.32 8.34 -8 8 C-7.34 7.34 -6.68 6.68 -6 6 Z M-13 12 C-12.34 12.33 -11.68 12.66 -11 13 C-17.81 20.54 -24.75 27.89 -32 35 C-32.66 34.67 -33.32 34.34 -34 34 C-27.53 26.16 -20.23 19.13 -13 12 Z " fill="#1B202C" transform="translate(223,661)"/>
<path d="M0 0 C3.35 0.08 5.16 0.3 7.77 2.48 C10.88 5.89 10.88 5.89 12 8 C11.63 10.03 11.63 10.03 11 12 C11.27 14.01 11.59 16.01 12 18 C10.06 16.88 10.06 16.88 8 15 C7.25 11.81 7.25 11.81 7 9 C6.34 9 5.68 9 5 9 C4.55 8.03 4.09 7.06 3.62 6.06 C2 3 2 3 0 2 C0 1.34 0 0.68 0 0 Z " fill="#AB6811" transform="translate(815,471)"/>
<path d="M0 0 C-2.59 2.59 -4.29 2.54 -7.88 3.06 C-13.83 3.95 -13.83 3.95 -15.93 4.59 C-19.06 5.21 -22.1 4.84 -25.25 4.56 C-25.9 4.51 -26.55 4.46 -27.22 4.4 C-28.81 4.28 -30.41 4.14 -32 4 C-32 3.67 -32 3.34 -32 3 C-28.57 2.57 -25.14 2.14 -21.7 1.72 C-19.97 1.5 -18.24 1.29 -16.5 1.07 C-10.96 0.39 -5.58 -0.19 0 0 Z " fill="#D78F13" transform="translate(816,601)"/>
<path d="M0 0 C2.18 2.18 2.92 3.71 3.11 6.81 C3.11 7.46 3.1 8.12 3.1 8.79 C3.09 9.51 3.09 10.22 3.09 10.95 C3.08 11.69 3.07 12.43 3.06 13.19 C3.06 13.94 3.05 14.69 3.05 15.46 C3.04 17.31 3.02 19.15 3 21 C2.34 20.67 1.68 20.34 1 20 C1.04 19.09 1.08 18.19 1.12 17.25 C1 14 1 14 -0.06 11.88 C-1.26 9.47 -0.81 8.5 0 6 C0 5.01 0 4.02 0 3 C0 2.01 0 1.02 0 0 Z " fill="#65360E" transform="translate(825,480)"/>
<path d="M0 0 C0.4 0.01 0.4 0.01 2.44 0.06 C3.06 1.94 3.06 1.94 3.44 4.06 C2.78 4.72 2.12 5.38 1.44 6.06 C-0.69 5.69 -0.69 5.69 -2.56 5.06 C-3.12 3.12 -3.12 3.12 -3.56 1.06 C-2.56 0.06 -2.56 0.06 0 0 Z " fill="#8092A5" transform="translate(491.5625,413.9375)"/>
<path d="M0 0 C5.75 -0.12 5.75 -0.12 8 1 C7.67 1.99 7.34 2.98 7 4 C6.26 3.96 5.51 3.92 4.75 3.88 C1.91 4 0.41 4.57 -2 6 C-1.34 4.02 -0.68 2.04 0 0 Z " fill="#8D5310" transform="translate(872,517)"/>
<path d="M0 0 C2 1 2 1 2 1 Z M-2 1 C-1.34 1 -0.68 1 0 1 C-0.6 3.02 -1.27 5.02 -2 7 C-2.33 7.17 -2.33 7.17 -4 8 C-3.12 2.12 -3.12 2.12 -2 1 Z M-5 8 C-5 11 -5 11 -5 11 Z " fill="#DCE2E5" transform="translate(369,460)"/>
<path d="M0 0 C0.66 0.33 0.66 0.33 4 2 C3.34 2.66 2.68 3.32 2 4 C1.34 2.68 0.68 1.36 0 0 Z " fill="#8394A6" transform="translate(657,416)"/>
</svg>
