<svg id="Layer_1" enable-background="new 0 0 512.346 512.346" height="512" viewBox="0 0 512.346 512.346" width="512" xmlns="http://www.w3.org/2000/svg"><g><g><path d="m439.678 320.734c-2.155 0-4.343-.467-6.418-1.451l-96.774-45.9c-7.485-3.55-10.675-12.496-7.125-19.98s12.497-10.674 19.98-7.125l96.774 45.9c7.485 3.55 10.675 12.496 7.125 19.98-2.565 5.409-7.949 8.576-13.562 8.576z" fill="#003140"/></g><g><path d="m237.581 439.068c-.212-.018-.425-.039-.639-.067-8.22-1.033-14.045-8.534-13.011-16.754l14.064-111.854c1.007-8.006 8.149-13.74 16.115-13.078.212.018.425.039.639.067 8.219 1.033 14.045 8.534 13.011 16.754l-14.065 111.854c-1.006 8.005-8.149 13.74-16.114 13.078z" fill="#006180"/></g><g><path d="m324.741 186.373c-4.23 0-8.434-1.778-11.4-5.243-5.389-6.293-4.655-15.762 1.637-21.15l95.879-82.103c6.293-5.388 15.763-4.656 21.15 1.637 5.389 6.293 4.655 15.762-1.637 21.15l-95.879 82.103c-2.829 2.421-6.298 3.606-9.75 3.606z" fill="#003140"/></g><g><path d="m203.435 191.987c-3.421 0-6.86-1.163-9.677-3.545l-124.511-105.27c-6.326-5.349-7.119-14.813-1.77-21.14s14.814-7.119 21.139-1.771l124.51 105.271c6.326 5.35 7.119 14.813 1.77 21.14-2.966 3.509-7.2 5.315-11.461 5.315z" fill="#006180"/></g><g><path d="m100.589 328.827c-5.202 0-10.257-2.709-13.029-7.545-4.119-7.188-1.631-16.354 5.557-20.473l90.61-51.925c7.188-4.12 16.354-1.63 20.473 5.557 4.119 7.188 1.631 16.354-5.557 20.473l-90.61 51.925c-2.352 1.348-4.916 1.988-7.444 1.988z" fill="#006180"/></g><ellipse cx="266.648" cy="229.454" fill="#fff5f5" rx="97.105" ry="97.105" transform="matrix(.707 -.707 .707 .707 -84.15 255.754)"/><circle cx="50.688" cy="50.437" fill="#45f6ff" r="50.437"/><circle cx="60.087" cy="333.912" fill="#ff6b6b" r="59.914"/><path d="m512.173 59.375c0-32.595-26.518-59.112-59.112-59.112s-59.111 26.518-59.111 59.112 26.518 59.111 59.111 59.111c32.595 0 59.112-26.517 59.112-59.111z" fill="#5ecbf1"/><path d="m466.464 275c-25.203 0-45.708 20.505-45.708 45.709 0 25.203 20.505 45.708 45.708 45.708 25.204 0 45.709-20.505 45.709-45.708 0-25.204-20.505-45.709-45.709-45.709z" fill="#b10f61"/><path d="m238.063 409.004c-28.442-2.365-53.505 18.85-55.87 47.292s18.85 53.505 47.292 55.87 53.506-18.85 55.871-47.292-18.851-53.505-47.293-55.87z" fill="#e20059"/><path d="m266.648 132.35v194.21c53.544 0 97.104-43.562 97.104-97.105s-43.56-97.105-97.104-97.105z" fill="#eceae7"/></g></svg>