<svg id="Layer_1" enable-background="new 0 0 512 512" height="512" viewBox="0 0 512 512" width="512" xmlns="http://www.w3.org/2000/svg"><g><path d="m474.097 378.729c17.198-33.502 26.905-71.482 26.905-111.731 0-135.311-109.691-245.002-245.002-245.002s-245.002 109.691-245.002 245.002c0 40.248 9.707 78.228 26.905 111.731z" fill="#ffdd40"/><g><g><path d="m462.493 236.045h-412.986c-17.964 0-32.578-14.614-32.578-32.578v-163.978c0-17.964 14.614-32.578 32.578-32.578h412.985c17.964 0 32.578 14.614 32.578 32.578v163.978c.001 17.964-14.613 32.578-32.577 32.578z" fill="#e9efff"/></g><path d="m132.96 6.911h-83.453c-17.964 0-32.578 14.614-32.578 32.578v163.978c0 17.964 14.614 32.578 32.578 32.578h62.899c-.232-.493-.512-.965-.872-1.385-7.835-9.153-4.238-18.037-1.207-22.711 1.341-2.069 1.235-4.749-.271-6.701-9.489-12.301-2.169-22.634 1.894-26.887 1.276-1.335 1.785-3.199 1.414-5.008-1.981-9.673 4.133-16.719 8.656-20.467 2.118-1.755 2.69-4.744 1.405-7.174-2.491-4.71-2.565-9.618-2.565-9.618s0-68.146 0-82.269c0-8.17 4.574-13.387 8.429-16.333 2.441-1.865 3.009-5.253 1.344-7.834-5.774-8.957-1.875-16.404 1.198-20.242.595-.745.966-1.608 1.129-2.505z" fill="#d3dcfb"/><path d="m49.507 34.403c-2.804 0-5.086 2.282-5.086 5.086v163.978c0 2.804 2.282 5.086 5.086 5.086h412.985c2.804 0 5.086-2.282 5.086-5.086v-163.978c0-2.804-2.282-5.086-5.086-5.086z" fill="#73c3f9"/><path d="m49.507 34.403c-2.804 0-5.086 2.282-5.086 5.086v163.978c0 2.804 2.282 5.086 5.086 5.086h61.752c-.047-1.172-.45-2.329-1.203-3.305-9.489-12.301-2.169-22.634 1.894-26.887 1.276-1.335 1.785-3.199 1.414-5.008-1.981-9.673 4.133-16.719 8.656-20.467 2.118-1.755 2.69-4.744 1.405-7.174-2.491-4.71-2.565-9.618-2.565-9.618s0-68.146 0-82.269c0-8.17 4.574-13.387 8.429-16.333 1.054-.806 1.736-1.902 2.062-3.088h-81.844z" fill="#4fabf7"/><path d="m369.403 34.403 98.176 98.176v-36.551l-61.625-61.625z" fill="#9bd8f9"/><path d="m328.12 34.403h-66.185l174.15 174.15h26.408c2.804 0 5.086-2.282 5.086-5.086v-29.605z" fill="#9bd8f9"/><path d="m236.666 185.558c-3.024.715-6.141-.469-8.234-2.766-7.54-8.277-20.871-8.346-28.504-.192-2.08 2.222-5.493 2.605-8.091 1.02-4.409-2.691-9.472-4.015-14.566-3.879-3.166.085-5.981-2.063-6.637-5.162-2.826-13.352-17.5-20.821-29.902-15.781-2.992 1.216-6.431.183-8.146-2.554-5.097-8.138-15.001-12.11-24.295-9.765-3.195.806-6.509-.972-7.75-4.025-5.812-14.284-24.637-18.975-36.488-8.969-2.529 2.135-6.117 2.596-8.925.844-3.344-2.086-7.049-3.012-10.708-2.981v72.121c0 2.804 2.282 5.086 5.086 5.086h216.086c.004-.199.009-.398.004-.599-.384-15.289-14.827-25.733-28.93-22.398z" fill="#50dd89"/><path d="m111.95 178.361c1.276-1.335 1.785-3.199 1.414-5.008-1.981-9.673 4.133-16.719 8.656-20.467 1.373-1.137 2.084-2.794 2.073-4.48-4.76-2.502-10.38-3.296-15.8-1.928-3.195.806-6.509-.972-7.751-4.025-5.812-14.284-24.637-18.975-36.488-8.969-2.529 2.135-6.117 2.596-8.925.844-3.344-2.086-7.049-3.012-10.708-2.981v72.121c0 2.804 2.282 5.086 5.086 5.086h61.752c-.047-1.172-.45-2.329-1.203-3.305-9.488-12.303-2.168-22.635 1.894-26.888z" fill="#38c674"/></g><path d="m475.115 376.692h-108.829v50.147c0 6.002-4.883 10.885-10.885 10.885h-198.802c-6.002 0-10.885-4.883-10.885-10.885v-50.147h-108.829c40.245 80.231 123.242 135.308 219.115 135.308s178.87-55.077 219.115-135.308z" fill="#3c58a0"/><path d="m276.11 485.447c-35.89-6-20.11-25.415-20.11-25.415l-13.049-22.308h-86.352c-6.002 0-10.885-4.883-10.885-10.885v-50.147h-108.829c40.245 80.231 123.242 135.308 219.115 135.308 13.283 0 26.318-1.062 39.028-3.097 3.775-5.973 8.315-18.903-18.918-23.456z" fill="#2a428c"/><path d="m292.705 275.75h62.696c6.002 0 10.885 4.883 10.885 10.885v92.093h62.361c-.451-9.829-1.686-20.986-4.249-33.042-1.639-7.709-2.566-15.548-2.558-23.429.001-1.05-.009-2.159-.033-3.32-.528-25.481-7.961-76.222-58.358-80.342-4.966-.406-7.608-2.333-13.461-5.633-8.24-4.646-16.558-8.612-25.177-11.864 1.569 2.015 2.214 4.619 1.765 7.154-3.974 22.417-21.605 38.664-33.871 47.498z" fill="#73c3f9"/><path d="m145.714 286.635c0-6.002 4.883-10.885 10.885-10.885h62.69c-12.266-8.835-29.897-25.083-33.871-47.497-.449-2.535.196-5.139 1.765-7.154-8.619 3.252-16.937 7.217-25.177 11.864-5.853 3.3-8.495 5.227-13.461 5.633-52.519 4.293-58.378 59.227-58.389 83.43-.003 7.893-.866 15.754-2.514 23.473-2.59 12.128-3.837 23.35-4.29 33.23h62.361v-92.094z" fill="#73c3f9"/><path d="m145.714 286.635c0-6.002 4.883-10.885 10.885-10.885h34.201c.021-.606.034-1.126.034-1.527 0-10.058 10.018-13.029 10.018-13.029l.246-1.892c-7.237-8.368-13.504-18.783-15.679-31.048-.449-2.535.195-5.139 1.765-7.154-8.619 3.252-16.937 7.217-25.177 11.864-5.853 3.3-8.495 5.227-13.461 5.633-52.519 4.293-58.378 59.227-58.389 83.43-.003 7.893-.866 15.754-2.514 23.473-2.461 11.523-3.7 22.213-4.206 31.727l4.761 1.503h41.376l16.141-5.221v-86.874z" fill="#4fabf7"/><path d="m246.908 256.885c.392.25.63.681.639 1.152.009.443.224.858.582 1.121 1.277.936 3.852 3.037 6.77 6.587.57.693 1.632.694 2.202.001 2.926-3.556 5.494-5.651 6.764-6.585.357-.263.572-.678.581-1.123.008-.471.248-.903.64-1.153 1.934-2.014 41.574-21.158 35.696-46.457-4.668-7.799-6.018-18.861-6.299-27.032-3.888 4.528-7.967 8.315-11.866 11.342-7.595 5.898-16.968 9.101-26.62 9.101-9.653 0-19.026-3.204-26.62-9.101-3.898-3.027-7.979-6.815-11.866-11.342-.281 8.173-1.633 19.24-6.305 27.04-5.938 25.389 33.577 44.235 35.702 46.449z" fill="#fcad6d"/><path d="m229.377 194.739c-3.898-3.027-7.979-6.815-11.866-11.342-.281 8.173-1.633 19.24-6.305 27.04-4.545 19.434 17.542 35.035 29.105 42.277.371-.332.739-.673 1.1-1.035 13.585-13.585 15.28-35.813 15.087-47.849-.168.002-.335.01-.502.01-9.651 0-19.024-3.204-26.619-9.101z" fill="#fd995b"/><path d="m275.192 275.75c.183-.38.367-.758.553-1.125l-10.328-14.963c-.472-.684-.593-1.5-.417-2.247h-1.119s-3.927 2.429-8.425 8.095c2.115 2.664 4.352 6.054 6.37 10.24z" fill="#1e9ef4"/><path d="m262.918 275.75c-6.316-13.101-14.804-18.335-14.804-18.335h-1.119c.176.748.055 1.563-.417 2.247l-10.328 14.962c.186.366.37.746.553 1.125h26.115z" fill="#4fabf7"/><path d="m216.879 275.75h20.494l11.105-16.088c.907-1.314.544-3.118-.801-3.978l-11.157-7.135c-25.805-17.468-26.267-32.209-23.017-40.778 1.211-3.193-1.916-6.283-5.062-4.955-11.185 4.724-18.663 12.677-22.351 17.365-1.847 2.347-2.595 5.38-2.074 8.32 3.887 21.934 20.466 38.013 32.863 47.249z" fill="#9bd8f9"/><path d="m274.622 275.75h20.494c12.397-9.236 28.976-25.315 32.864-47.249.522-2.941-.226-5.973-2.073-8.32-3.689-4.687-11.167-12.641-22.352-17.365-3.146-1.329-6.272 1.762-5.062 4.955 3.25 8.57 2.788 23.31-23.017 40.778l-11.157 7.135c-1.345.86-1.708 2.664-.802 3.978z" fill="#9bd8f9"/><path d="m146.223 361.17h-44.632c-14.911 0-27.112 12.2-27.112 27.112 0 14.911 12.2 27.112 27.112 27.112h44.632z" fill="#fd995b"/><path d="m365.777 361.17h44.632c14.911 0 27.112 12.2 27.112 27.112 0 14.911-12.2 27.112-27.112 27.112h-44.632z" fill="#fcad6d"/><path d="m243.116.802c-38.652 5.266-42.326 27.181-42.343 35.221-.004 1.686-.938 3.249-2.454 3.986-20.105 9.781-9.265 56.919-9.265 56.919 2.019.135 4.132.952 5.708 1.716.386-2.402 1.016-4.767 1.906-7.053.678-1.742 1.526-3.502 2.585-5.164 1.839-2.885 2.676-6.287 2.426-9.689-.723-9.834-.375-29.212 12.606-35.052 10.997-4.948 24.487-2.083 33.089.778 5.587 1.858 11.639 1.858 17.225 0 8.603-2.861 22.092-5.726 33.089-.778 12.944 5.824 13.327 25.108 12.613 34.968-.248 3.428.567 6.866 2.419 9.773 1.094 1.716 1.962 3.536 2.651 5.332.856 2.234 1.465 4.542 1.841 6.885 1.987-.962 4.827-2.011 7.256-1.667.297-10.308 1.249-21.419 1.249-21.419 11.456-56.1-40.983-80.426-82.601-74.756z" fill="#2a428c"/><path d="m268.742 1.011c-8.577-1.273-17.316-1.341-25.625-.209-38.652 5.266-42.326 27.181-42.343 35.221-.004 1.686-.938 3.249-2.454 3.987-20.105 9.781-9.265 56.919-9.265 56.919 2.019.135 4.132.953 5.708 1.716.386-2.402 1.016-4.767 1.906-7.053.678-1.742 1.525-3.502 2.585-5.164 1.839-2.884 2.676-6.287 2.426-9.689-.722-9.834-.375-29.212 12.606-35.052 10.997-4.948 24.487-2.083 33.089.778 1.229.409 2.484.712 3.748.941-.078-.132-.148-.267-.229-.397-16.852-26.974 17.836-41.993 17.848-41.998z" fill="#1c2e7a"/><path d="m328.814 98.316c-3.01-2.759-9.007-1.361-11.6.329.568 3.537.6 7.156.11 10.729l-3.06 22.284c0 1.796-.057 3.559-.161 5.29 7.461 2.25 11.167-4.448 11.791-9.044.269-1.979.708-3.929 1.317-5.832 1.986-6.197 9.145-16.843 1.603-23.756z" fill="#fcad6d"/><path d="m183.162 98.316c3.01-2.759 9.007-1.361 11.6.329-.568 3.537-.6 7.156-.109 10.729l3.06 22.284c0 1.796.057 3.559.161 5.29-7.461 2.25-11.167-4.448-11.791-9.044-.269-1.979-.708-3.929-1.318-5.832-1.986-6.197-9.146-16.843-1.603-23.756z" fill="#fd995b"/><path d="m315.69 91.638c-2.177-5.679-5.55-8.03-5.048-14.959 1.804-24.889-7.254-32.802-12.813-35.303-10.899-4.904-24.144-2.292-33.335.764-5.485 1.824-11.527 1.824-17.013 0-9.191-3.055-22.433-5.669-33.335-.764-5.57 2.506-14.639 10.436-12.806 35.389.5 6.789-2.823 9.139-4.989 14.704-2.176 5.593-2.881 11.799-2.036 17.947l3.057 22.243c0 36.743 22.23 57.971 31.788 65.392 15.679 12.177 37.865 12.265 53.657 0 9.558-7.422 31.788-28.65 31.784-65.345l3.06-22.285c.836-6.088.154-12.237-1.971-17.783z" fill="#f9ba8f"/><g><path d="m268.742 197.051c-9.558-7.421-31.788-28.649-31.788-65.392l-3.057-22.243c-.844-6.149-.14-12.354 2.036-17.947 2.165-5.565 5.489-7.915 4.989-14.704-1.545-21.026 4.652-29.965 9.973-33.757-1.153-.22-2.297-.496-3.413-.867-9.191-3.055-22.433-5.669-33.335-.764-5.57 2.506-14.639 10.436-12.806 35.389.5 6.789-2.824 9.139-4.989 14.704-2.176 5.593-2.881 11.799-2.036 17.947l3.057 22.243c0 36.743 22.23 57.971 31.788 65.392 13.469 10.46 31.728 11.973 46.623 4.424-2.452-1.241-4.818-2.697-7.042-4.425z" fill="#fcad6d"/></g><path d="m366.272 427.117c-.149 5.873-4.963 10.607-10.871 10.607h-198.802c-5.908 0-10.722-4.734-10.871-10.607-8.949.167-16.155 7.461-16.155 16.45 0 9.093 7.372 16.465 16.465 16.465h219.924c9.094 0 16.465-7.372 16.465-16.465 0-8.989-7.206-16.283-16.155-16.45z" fill="#d3dcfb"/><g><path d="m197.323 443.567c0-2.061.394-4.025 1.086-5.842h-41.81c-5.908 0-10.722-4.734-10.871-10.608-8.949.167-16.155 7.461-16.155 16.45 0 9.093 7.371 16.465 16.465 16.465h67.75c-9.094 0-16.465-7.372-16.465-16.465z" fill="#bec8f7"/></g><path d="m355.401 439.252h-198.802c-6.827 0-12.412-5.586-12.412-12.413v-140.204c0-6.827 5.585-12.413 12.412-12.413h198.802c6.827 0 12.412 5.586 12.412 12.413v140.204c0 6.827-5.585 12.413-12.412 12.413z" fill="#e9efff"/><g fill="#d3dcfb"><path d="m188.438 426.839v-140.204c0-6.827 5.585-12.413 12.412-12.413h-44.252c-6.827 0-12.413 5.586-12.413 12.413v140.204c0 6.827 5.586 12.413 12.413 12.413h44.252c-6.826 0-12.412-5.586-12.412-12.413z"/><circle cx="256" cy="356.972" r="20.11"/></g></g></svg>